<svg width="311" height="255" viewBox="0 0 311 255" fill="none" xmlns="http://www.w3.org/2000/svg">
    <path d="M126.972 157.454L129.076 154.729L125.648 155.044L36.5316 163.23L260.904 7.44709L176.563 109.569L174.535 112.024H177.719H252.717L56.9196 248.209L126.972 157.454Z" stroke="white" stroke-width="3"/>
    <path opacity="0.9" d="M197.474 181.67C196.482 183.943 195.366 185.927 194.126 187.622C192.927 189.275 191.646 190.681 190.282 191.838C188.959 192.954 187.616 193.781 186.252 194.318C184.888 194.855 183.565 195.124 182.284 195.124C181.003 195.124 179.825 194.835 178.75 194.256C177.717 193.677 176.807 192.809 176.022 191.652C175.237 190.495 174.596 189.069 174.1 187.374C173.645 185.679 173.418 183.695 173.418 181.422C173.418 177.537 173.955 173.713 175.03 169.952C176.105 166.149 177.613 162.739 179.556 159.722C181.499 156.705 183.793 154.287 186.438 152.468C189.125 150.608 192.08 149.678 195.304 149.678C196.296 149.678 197.247 149.885 198.156 150.298C199.065 150.711 199.851 151.29 200.512 152.034C201.173 152.778 201.69 153.687 202.062 154.762C202.475 155.837 202.682 157.035 202.682 158.358C202.682 158.606 202.682 158.875 202.682 159.164C202.682 159.412 202.661 159.681 202.62 159.97L194.498 162.14C194.002 161.107 193.423 160.59 192.762 160.59C192.101 160.59 191.398 160.983 190.654 161.768C189.951 162.512 189.249 163.504 188.546 164.744C187.843 165.943 187.161 167.307 186.5 168.836C185.839 170.324 185.26 171.833 184.764 173.362C184.268 174.891 183.855 176.359 183.524 177.764C183.235 179.128 183.09 180.244 183.09 181.112C183.09 182.435 183.255 183.365 183.586 183.902C183.958 184.439 184.433 184.708 185.012 184.708C185.467 184.708 185.983 184.543 186.562 184.212C187.141 183.84 187.678 183.385 188.174 182.848C188.67 182.269 189.125 181.629 189.538 180.926C189.951 180.223 190.241 179.521 190.406 178.818L197.474 181.67ZM196.92 195.062C198.036 189.565 199.111 184.191 200.144 178.942C200.516 176.71 200.929 174.395 201.384 171.998C201.839 169.559 202.252 167.162 202.624 164.806C203.037 162.409 203.409 160.115 203.74 157.924C204.112 155.692 204.401 153.667 204.608 151.848C206.964 151.104 209.506 150.567 212.234 150.236C214.962 149.864 217.669 149.678 220.356 149.678C221.968 149.678 223.291 149.864 224.324 150.236C225.399 150.608 226.225 151.145 226.804 151.848C227.424 152.509 227.858 153.295 228.106 154.204C228.354 155.113 228.478 156.126 228.478 157.242C228.478 158.895 228.189 160.528 227.61 162.14C227.031 163.711 226.246 165.219 225.254 166.666C224.303 168.071 223.187 169.373 221.906 170.572C220.666 171.729 219.323 172.68 217.876 173.424C218.62 175.077 219.405 176.896 220.232 178.88C221.1 180.823 221.906 182.683 222.65 184.46C223.477 186.527 224.324 188.593 225.192 190.66L215.582 194.008C214.755 191.363 214.011 188.883 213.35 186.568C213.061 185.617 212.771 184.646 212.482 183.654C212.193 182.621 211.924 181.649 211.676 180.74C211.428 179.831 211.221 179.025 211.056 178.322C210.891 177.578 210.787 176.979 210.746 176.524L209.94 176.772C209.692 178.095 209.382 179.645 209.01 181.422C208.679 183.199 208.369 184.915 208.08 186.568C207.708 188.511 207.336 190.474 206.964 192.458L196.92 195.062ZM211.49 168.154C212.275 168.071 213.226 167.741 214.342 167.162C215.499 166.583 216.595 165.901 217.628 165.116C218.661 164.289 219.55 163.442 220.294 162.574C221.038 161.706 221.41 160.941 221.41 160.28C221.41 159.825 221.265 159.474 220.976 159.226C220.687 158.937 220.273 158.73 219.736 158.606C219.24 158.441 218.682 158.337 218.062 158.296C217.442 158.255 216.801 158.234 216.14 158.234C215.685 158.234 215.21 158.255 214.714 158.296C214.259 158.296 213.846 158.296 213.474 158.296L211.49 168.154ZM250.013 182.91C249.434 185.266 248.607 187.271 247.533 188.924C246.499 190.577 245.259 191.941 243.813 193.016C242.407 194.091 240.899 194.876 239.287 195.372C237.675 195.868 236.063 196.116 234.451 196.116C233.5 196.116 232.529 195.951 231.537 195.62C230.545 195.331 229.656 194.876 228.871 194.256C228.085 193.636 227.424 192.851 226.887 191.9C226.391 190.949 226.143 189.833 226.143 188.552C226.143 188.387 226.143 188.221 226.143 188.056C226.143 187.891 226.163 187.725 226.205 187.56C226.37 185.865 226.639 183.819 227.011 181.422C227.383 179.025 227.775 176.524 228.189 173.92C228.602 171.316 229.057 168.712 229.553 166.108C230.049 163.463 230.483 161.065 230.855 158.916C231.268 156.767 231.619 154.989 231.909 153.584C232.198 152.137 232.384 151.249 232.467 150.918C233.335 150.835 234.368 150.732 235.567 150.608C236.765 150.484 237.881 150.381 238.915 150.298C240.196 150.174 241.457 150.05 242.697 149.926C241.622 154.927 240.671 159.453 239.845 163.504C239.473 165.24 239.101 166.976 238.729 168.712C238.398 170.448 238.067 172.039 237.737 173.486C237.447 174.933 237.179 176.193 236.931 177.268C236.724 178.301 236.538 179.149 236.373 179.81C236.249 180.471 236.083 181.319 235.877 182.352C235.711 183.344 235.629 184.253 235.629 185.08C235.629 185.741 235.794 186.299 236.125 186.754C236.455 187.167 236.869 187.374 237.365 187.374C238.067 187.374 238.646 187.105 239.101 186.568C239.555 185.989 239.927 185.307 240.217 184.522C240.547 183.737 240.775 182.951 240.899 182.166C241.064 181.339 241.209 180.699 241.333 180.244C241.581 179.045 241.849 177.723 242.139 176.276C242.469 174.788 242.779 173.259 243.069 171.688C243.399 170.076 243.709 168.443 243.999 166.79C244.329 165.137 244.639 163.525 244.929 161.954C245.631 158.317 246.313 154.555 246.975 150.67L256.399 150.05C256.399 150.05 256.295 150.587 256.089 151.662C255.882 152.737 255.613 154.163 255.283 155.94C254.952 157.717 254.58 159.743 254.167 162.016C253.795 164.289 253.361 166.666 252.865 169.146C252.369 171.585 251.873 174.003 251.377 176.4C250.922 178.756 250.467 180.926 250.013 182.91ZM277.661 179.686C277.661 182.001 277.207 184.109 276.297 186.01C275.429 187.87 274.231 189.482 272.701 190.846C271.213 192.21 269.436 193.264 267.369 194.008C265.344 194.752 263.153 195.124 260.797 195.124C259.144 195.124 257.491 194.69 255.837 193.822C254.184 192.913 252.593 191.487 251.063 189.544L255.651 180.554C255.941 181.091 256.375 181.649 256.953 182.228C257.532 182.765 258.173 183.241 258.875 183.654C259.619 184.067 260.343 184.419 261.045 184.708C261.789 184.956 262.451 185.08 263.029 185.08C263.525 185.08 264.042 184.997 264.579 184.832C265.117 184.667 265.613 184.419 266.067 184.088C266.522 183.757 266.873 183.385 267.121 182.972C267.411 182.517 267.555 182.001 267.555 181.422C267.555 180.43 267.225 179.521 266.563 178.694C265.943 177.826 265.158 177.02 264.207 176.276C263.257 175.491 262.223 174.705 261.107 173.92C259.991 173.135 258.958 172.308 258.007 171.44C257.098 170.572 256.313 169.601 255.651 168.526C254.99 167.451 254.659 166.253 254.659 164.93C254.659 162.781 255.3 160.776 256.581 158.916C257.863 157.056 259.454 155.465 261.355 154.142C263.298 152.778 265.406 151.703 267.679 150.918C269.953 150.133 272.102 149.74 274.127 149.74C275.243 149.74 276.297 149.885 277.289 150.174C278.281 150.422 279.129 150.856 279.831 151.476C280.575 152.055 281.154 152.799 281.567 153.708C282.022 154.617 282.249 155.754 282.249 157.118C282.249 157.697 282.187 158.275 282.063 158.854C281.981 159.433 281.898 160.053 281.815 160.714L272.825 163.318C272.908 162.987 272.97 162.657 273.011 162.326C273.094 161.995 273.135 161.665 273.135 161.334C273.135 160.094 272.908 159.205 272.453 158.668C272.04 158.089 271.482 157.8 270.779 157.8C270.449 157.8 270.035 157.924 269.539 158.172C269.085 158.42 268.609 158.751 268.113 159.164C267.659 159.536 267.266 159.991 266.935 160.528C266.605 161.065 266.439 161.644 266.439 162.264C266.439 163.256 266.708 164.083 267.245 164.744C267.824 165.405 268.527 166.025 269.353 166.604C270.18 167.183 271.069 167.782 272.019 168.402C273.011 168.981 273.921 169.745 274.747 170.696C275.574 171.647 276.256 172.845 276.793 174.292C277.372 175.697 277.661 177.495 277.661 179.686ZM277.332 195.124C278.489 189.337 279.605 183.695 280.68 178.198C281.093 175.842 281.527 173.403 281.982 170.882C282.437 168.319 282.85 165.798 283.222 163.318C283.635 160.838 284.007 158.441 284.338 156.126C284.71 153.77 284.999 151.641 285.206 149.74C286.157 149.781 287.025 149.843 287.81 149.926C288.637 149.967 289.443 150.009 290.228 150.05C291.013 150.091 291.799 150.133 292.584 150.174C293.411 150.174 294.299 150.174 295.25 150.174C294.547 153.109 293.845 156.043 293.142 158.978C292.481 161.913 291.861 164.868 291.282 167.844L297.42 167.162C297.999 164.227 298.515 161.396 298.97 158.668C299.425 155.899 300.024 153.047 300.768 150.112C301.719 149.947 302.773 149.823 303.93 149.74C305.087 149.616 306.162 149.513 307.154 149.43C308.146 149.347 308.973 149.285 309.634 149.244C310.337 149.161 310.688 149.12 310.688 149.12C310.109 150.98 309.551 153.026 309.014 155.258C308.518 157.449 308.022 159.743 307.526 162.14C307.03 164.496 306.555 166.893 306.1 169.332C305.645 171.771 305.232 174.085 304.86 176.276C303.951 181.525 303.103 186.899 302.318 192.396L292.646 193.512C293.183 191.032 293.659 188.614 294.072 186.258C294.485 184.274 294.899 182.207 295.312 180.058C295.767 177.909 296.118 176.069 296.366 174.54L290.352 175.098C290.063 176.669 289.711 178.487 289.298 180.554C288.926 182.621 288.575 184.584 288.244 186.444C287.789 188.676 287.335 190.908 286.88 193.14L277.332 195.124Z" fill="#00F0FF"/>
    <path opacity="0.9" d="M193.474 187.67C192.482 189.943 191.366 191.927 190.126 193.622C188.927 195.275 187.646 196.681 186.282 197.838C184.959 198.954 183.616 199.781 182.252 200.318C180.888 200.855 179.565 201.124 178.284 201.124C177.003 201.124 175.825 200.835 174.75 200.256C173.717 199.677 172.807 198.809 172.022 197.652C171.237 196.495 170.596 195.069 170.1 193.374C169.645 191.679 169.418 189.695 169.418 187.422C169.418 183.537 169.955 179.713 171.03 175.952C172.105 172.149 173.613 168.739 175.556 165.722C177.499 162.705 179.793 160.287 182.438 158.468C185.125 156.608 188.08 155.678 191.304 155.678C192.296 155.678 193.247 155.885 194.156 156.298C195.065 156.711 195.851 157.29 196.512 158.034C197.173 158.778 197.69 159.687 198.062 160.762C198.475 161.837 198.682 163.035 198.682 164.358C198.682 164.606 198.682 164.875 198.682 165.164C198.682 165.412 198.661 165.681 198.62 165.97L190.498 168.14C190.002 167.107 189.423 166.59 188.762 166.59C188.101 166.59 187.398 166.983 186.654 167.768C185.951 168.512 185.249 169.504 184.546 170.744C183.843 171.943 183.161 173.307 182.5 174.836C181.839 176.324 181.26 177.833 180.764 179.362C180.268 180.891 179.855 182.359 179.524 183.764C179.235 185.128 179.09 186.244 179.09 187.112C179.09 188.435 179.255 189.365 179.586 189.902C179.958 190.439 180.433 190.708 181.012 190.708C181.467 190.708 181.983 190.543 182.562 190.212C183.141 189.84 183.678 189.385 184.174 188.848C184.67 188.269 185.125 187.629 185.538 186.926C185.951 186.223 186.241 185.521 186.406 184.818L193.474 187.67ZM192.92 201.062C194.036 195.565 195.111 190.191 196.144 184.942C196.516 182.71 196.929 180.395 197.384 177.998C197.839 175.559 198.252 173.162 198.624 170.806C199.037 168.409 199.409 166.115 199.74 163.924C200.112 161.692 200.401 159.667 200.608 157.848C202.964 157.104 205.506 156.567 208.234 156.236C210.962 155.864 213.669 155.678 216.356 155.678C217.968 155.678 219.291 155.864 220.324 156.236C221.399 156.608 222.225 157.145 222.804 157.848C223.424 158.509 223.858 159.295 224.106 160.204C224.354 161.113 224.478 162.126 224.478 163.242C224.478 164.895 224.189 166.528 223.61 168.14C223.031 169.711 222.246 171.219 221.254 172.666C220.303 174.071 219.187 175.373 217.906 176.572C216.666 177.729 215.323 178.68 213.876 179.424C214.62 181.077 215.405 182.896 216.232 184.88C217.1 186.823 217.906 188.683 218.65 190.46C219.477 192.527 220.324 194.593 221.192 196.66L211.582 200.008C210.755 197.363 210.011 194.883 209.35 192.568C209.061 191.617 208.771 190.646 208.482 189.654C208.193 188.621 207.924 187.649 207.676 186.74C207.428 185.831 207.221 185.025 207.056 184.322C206.891 183.578 206.787 182.979 206.746 182.524L205.94 182.772C205.692 184.095 205.382 185.645 205.01 187.422C204.679 189.199 204.369 190.915 204.08 192.568C203.708 194.511 203.336 196.474 202.964 198.458L192.92 201.062ZM207.49 174.154C208.275 174.071 209.226 173.741 210.342 173.162C211.499 172.583 212.595 171.901 213.628 171.116C214.661 170.289 215.55 169.442 216.294 168.574C217.038 167.706 217.41 166.941 217.41 166.28C217.41 165.825 217.265 165.474 216.976 165.226C216.687 164.937 216.273 164.73 215.736 164.606C215.24 164.441 214.682 164.337 214.062 164.296C213.442 164.255 212.801 164.234 212.14 164.234C211.685 164.234 211.21 164.255 210.714 164.296C210.259 164.296 209.846 164.296 209.474 164.296L207.49 174.154ZM246.013 188.91C245.434 191.266 244.607 193.271 243.533 194.924C242.499 196.577 241.259 197.941 239.813 199.016C238.407 200.091 236.899 200.876 235.287 201.372C233.675 201.868 232.063 202.116 230.451 202.116C229.5 202.116 228.529 201.951 227.537 201.62C226.545 201.331 225.656 200.876 224.871 200.256C224.085 199.636 223.424 198.851 222.887 197.9C222.391 196.949 222.143 195.833 222.143 194.552C222.143 194.387 222.143 194.221 222.143 194.056C222.143 193.891 222.163 193.725 222.205 193.56C222.37 191.865 222.639 189.819 223.011 187.422C223.383 185.025 223.775 182.524 224.189 179.92C224.602 177.316 225.057 174.712 225.553 172.108C226.049 169.463 226.483 167.065 226.855 164.916C227.268 162.767 227.619 160.989 227.909 159.584C228.198 158.137 228.384 157.249 228.467 156.918C229.335 156.835 230.368 156.732 231.567 156.608C232.765 156.484 233.881 156.381 234.915 156.298C236.196 156.174 237.457 156.05 238.697 155.926C237.622 160.927 236.671 165.453 235.845 169.504C235.473 171.24 235.101 172.976 234.729 174.712C234.398 176.448 234.067 178.039 233.737 179.486C233.447 180.933 233.179 182.193 232.931 183.268C232.724 184.301 232.538 185.149 232.373 185.81C232.249 186.471 232.083 187.319 231.877 188.352C231.711 189.344 231.629 190.253 231.629 191.08C231.629 191.741 231.794 192.299 232.125 192.754C232.455 193.167 232.869 193.374 233.365 193.374C234.067 193.374 234.646 193.105 235.101 192.568C235.555 191.989 235.927 191.307 236.217 190.522C236.547 189.737 236.775 188.951 236.899 188.166C237.064 187.339 237.209 186.699 237.333 186.244C237.581 185.045 237.849 183.723 238.139 182.276C238.469 180.788 238.779 179.259 239.069 177.688C239.399 176.076 239.709 174.443 239.999 172.79C240.329 171.137 240.639 169.525 240.929 167.954C241.631 164.317 242.313 160.555 242.975 156.67L252.399 156.05C252.399 156.05 252.295 156.587 252.089 157.662C251.882 158.737 251.613 160.163 251.283 161.94C250.952 163.717 250.58 165.743 250.167 168.016C249.795 170.289 249.361 172.666 248.865 175.146C248.369 177.585 247.873 180.003 247.377 182.4C246.922 184.756 246.467 186.926 246.013 188.91ZM273.661 185.686C273.661 188.001 273.207 190.109 272.297 192.01C271.429 193.87 270.231 195.482 268.701 196.846C267.213 198.21 265.436 199.264 263.369 200.008C261.344 200.752 259.153 201.124 256.797 201.124C255.144 201.124 253.491 200.69 251.837 199.822C250.184 198.913 248.593 197.487 247.063 195.544L251.651 186.554C251.941 187.091 252.375 187.649 252.953 188.228C253.532 188.765 254.173 189.241 254.875 189.654C255.619 190.067 256.343 190.419 257.045 190.708C257.789 190.956 258.451 191.08 259.029 191.08C259.525 191.08 260.042 190.997 260.579 190.832C261.117 190.667 261.613 190.419 262.067 190.088C262.522 189.757 262.873 189.385 263.121 188.972C263.411 188.517 263.555 188.001 263.555 187.422C263.555 186.43 263.225 185.521 262.563 184.694C261.943 183.826 261.158 183.02 260.207 182.276C259.257 181.491 258.223 180.705 257.107 179.92C255.991 179.135 254.958 178.308 254.007 177.44C253.098 176.572 252.313 175.601 251.651 174.526C250.99 173.451 250.659 172.253 250.659 170.93C250.659 168.781 251.3 166.776 252.581 164.916C253.863 163.056 255.454 161.465 257.355 160.142C259.298 158.778 261.406 157.703 263.679 156.918C265.953 156.133 268.102 155.74 270.127 155.74C271.243 155.74 272.297 155.885 273.289 156.174C274.281 156.422 275.129 156.856 275.831 157.476C276.575 158.055 277.154 158.799 277.567 159.708C278.022 160.617 278.249 161.754 278.249 163.118C278.249 163.697 278.187 164.275 278.063 164.854C277.981 165.433 277.898 166.053 277.815 166.714L268.825 169.318C268.908 168.987 268.97 168.657 269.011 168.326C269.094 167.995 269.135 167.665 269.135 167.334C269.135 166.094 268.908 165.205 268.453 164.668C268.04 164.089 267.482 163.8 266.779 163.8C266.449 163.8 266.035 163.924 265.539 164.172C265.085 164.42 264.609 164.751 264.113 165.164C263.659 165.536 263.266 165.991 262.935 166.528C262.605 167.065 262.439 167.644 262.439 168.264C262.439 169.256 262.708 170.083 263.245 170.744C263.824 171.405 264.527 172.025 265.353 172.604C266.18 173.183 267.069 173.782 268.019 174.402C269.011 174.981 269.921 175.745 270.747 176.696C271.574 177.647 272.256 178.845 272.793 180.292C273.372 181.697 273.661 183.495 273.661 185.686ZM273.332 201.124C274.489 195.337 275.605 189.695 276.68 184.198C277.093 181.842 277.527 179.403 277.982 176.882C278.437 174.319 278.85 171.798 279.222 169.318C279.635 166.838 280.007 164.441 280.338 162.126C280.71 159.77 280.999 157.641 281.206 155.74C282.157 155.781 283.025 155.843 283.81 155.926C284.637 155.967 285.443 156.009 286.228 156.05C287.013 156.091 287.799 156.133 288.584 156.174C289.411 156.174 290.299 156.174 291.25 156.174C290.547 159.109 289.845 162.043 289.142 164.978C288.481 167.913 287.861 170.868 287.282 173.844L293.42 173.162C293.999 170.227 294.515 167.396 294.97 164.668C295.425 161.899 296.024 159.047 296.768 156.112C297.719 155.947 298.773 155.823 299.93 155.74C301.087 155.616 302.162 155.513 303.154 155.43C304.146 155.347 304.973 155.285 305.634 155.244C306.337 155.161 306.688 155.12 306.688 155.12C306.109 156.98 305.551 159.026 305.014 161.258C304.518 163.449 304.022 165.743 303.526 168.14C303.03 170.496 302.555 172.893 302.1 175.332C301.645 177.771 301.232 180.085 300.86 182.276C299.951 187.525 299.103 192.899 298.318 198.396L288.646 199.512C289.183 197.032 289.659 194.614 290.072 192.258C290.485 190.274 290.899 188.207 291.312 186.058C291.767 183.909 292.118 182.069 292.366 180.54L286.352 181.098C286.063 182.669 285.711 184.487 285.298 186.554C284.926 188.621 284.575 190.584 284.244 192.444C283.789 194.676 283.335 196.908 282.88 199.14L273.332 201.124Z" fill="#FF0000"/>
    <path opacity="0.9" d="M31.466 98.686C31.466 101.001 31.0113 103.109 30.102 105.01C29.234 106.87 28.0353 108.482 26.506 109.846C25.018 111.21 23.2407 112.264 21.174 113.008C19.1487 113.752 16.958 114.124 14.602 114.124C12.9487 114.124 11.2953 113.69 9.642 112.822C7.98867 111.913 6.39733 110.487 4.868 108.544L9.456 99.554C9.74533 100.091 10.1793 100.649 10.758 101.228C11.3367 101.765 11.9773 102.241 12.68 102.654C13.424 103.067 14.1473 103.419 14.85 103.708C15.594 103.956 16.2553 104.08 16.834 104.08C17.33 104.08 17.8467 103.997 18.384 103.832C18.9213 103.667 19.4173 103.419 19.872 103.088C20.3267 102.757 20.678 102.385 20.926 101.972C21.2153 101.517 21.36 101.001 21.36 100.422C21.36 99.43 21.0293 98.5207 20.368 97.694C19.748 96.826 18.9627 96.02 18.012 95.276C17.0613 94.4907 16.028 93.7053 14.912 92.92C13.796 92.1347 12.7627 91.308 11.812 90.44C10.9027 89.572 10.1173 88.6007 9.456 87.526C8.79467 86.4513 8.464 85.2527 8.464 83.93C8.464 81.7807 9.10467 79.776 10.386 77.916C11.6673 76.056 13.2587 74.4647 15.16 73.142C17.1027 71.778 19.2107 70.7033 21.484 69.918C23.7573 69.1327 25.9067 68.74 27.932 68.74C29.048 68.74 30.102 68.8847 31.094 69.174C32.086 69.422 32.9333 69.856 33.636 70.476C34.38 71.0547 34.9587 71.7987 35.372 72.708C35.8267 73.6173 36.054 74.754 36.054 76.118C36.054 76.6967 35.992 77.2753 35.868 77.854C35.7853 78.4327 35.7027 79.0527 35.62 79.714L26.63 82.318C26.7127 81.9873 26.7747 81.6567 26.816 81.326C26.8987 80.9953 26.94 80.6647 26.94 80.334C26.94 79.094 26.7127 78.2053 26.258 77.668C25.8447 77.0893 25.2867 76.8 24.584 76.8C24.2533 76.8 23.84 76.924 23.344 77.172C22.8893 77.42 22.414 77.7507 21.918 78.164C21.4633 78.536 21.0707 78.9907 20.74 79.528C20.4093 80.0653 20.244 80.644 20.244 81.264C20.244 82.256 20.5127 83.0827 21.05 83.744C21.6287 84.4053 22.3313 85.0253 23.158 85.604C23.9847 86.1827 24.8733 86.782 25.824 87.402C26.816 87.9807 27.7253 88.7453 28.552 89.696C29.3787 90.6467 30.0607 91.8453 30.598 93.292C31.1767 94.6973 31.466 96.4953 31.466 98.686ZM31.1366 114.062L39.2586 69.98L58.8506 68.306C58.5613 69.2153 58.3133 70.1453 58.1066 71.096C57.9 71.8813 57.6933 72.708 57.4866 73.576C57.3213 74.4027 57.1766 75.1467 57.0526 75.808C56.6393 75.8493 56.04 75.8907 55.2546 75.932C54.5106 75.932 53.7046 75.9527 52.8366 75.994C51.9686 75.994 51.08 75.994 50.1706 75.994C49.3026 75.994 48.538 75.994 47.8766 75.994L45.7066 87.092C46.988 87.0093 48.1866 86.9473 49.3026 86.906C50.212 86.8647 51.142 86.844 52.0926 86.844C53.0433 86.844 53.746 86.8233 54.2006 86.782C54.0353 87.9393 53.87 89.076 53.7046 90.192C53.5806 91.308 53.4153 92.4447 53.2086 93.602C52.7953 93.6433 52.1133 93.6847 51.1626 93.726C50.2533 93.726 49.3233 93.7467 48.3726 93.788C47.298 93.8293 46.12 93.8707 44.8386 93.912L42.7306 105.32L51.7826 103.894L51.1626 110.962L31.1366 114.062ZM78.2455 100.67C77.2535 102.943 76.1375 104.927 74.8975 106.622C73.6988 108.275 72.4175 109.681 71.0535 110.838C69.7308 111.954 68.3875 112.781 67.0235 113.318C65.6595 113.855 64.3368 114.124 63.0555 114.124C61.7742 114.124 60.5962 113.835 59.5215 113.256C58.4882 112.677 57.5788 111.809 56.7935 110.652C56.0082 109.495 55.3675 108.069 54.8715 106.374C54.4168 104.679 54.1895 102.695 54.1895 100.422C54.1895 96.5367 54.7268 92.7133 55.8015 88.952C56.8762 85.1493 58.3848 81.7393 60.3275 78.722C62.2702 75.7047 64.5642 73.2867 67.2095 71.468C69.8962 69.608 72.8515 68.678 76.0755 68.678C77.0675 68.678 78.0182 68.8847 78.9275 69.298C79.8368 69.7113 80.6222 70.29 81.2835 71.034C81.9448 71.778 82.4615 72.6873 82.8335 73.762C83.2468 74.8367 83.4535 76.0353 83.4535 77.358C83.4535 77.606 83.4535 77.8747 83.4535 78.164C83.4535 78.412 83.4328 78.6807 83.3915 78.97L75.2695 81.14C74.7735 80.1067 74.1948 79.59 73.5335 79.59C72.8722 79.59 72.1695 79.9827 71.4255 80.768C70.7228 81.512 70.0202 82.504 69.3175 83.744C68.6148 84.9427 67.9328 86.3067 67.2715 87.836C66.6102 89.324 66.0315 90.8327 65.5355 92.362C65.0395 93.8913 64.6262 95.3587 64.2955 96.764C64.0062 98.128 63.8615 99.244 63.8615 100.112C63.8615 101.435 64.0268 102.365 64.3575 102.902C64.7295 103.439 65.2048 103.708 65.7835 103.708C66.2382 103.708 66.7548 103.543 67.3335 103.212C67.9122 102.84 68.4495 102.385 68.9455 101.848C69.4415 101.269 69.8962 100.629 70.3095 99.926C70.7228 99.2233 71.0122 98.5207 71.1775 97.818L78.2455 100.67ZM77.6914 114.062C78.8074 108.565 79.882 103.191 80.9154 97.942C81.2874 95.71 81.7007 93.3953 82.1554 90.998C82.61 88.5593 83.0234 86.162 83.3954 83.806C83.8087 81.4087 84.1807 79.1147 84.5114 76.924C84.8834 74.692 85.1727 72.6667 85.3794 70.848C87.7354 70.104 90.2774 69.5667 93.0054 69.236C95.7334 68.864 98.4407 68.678 101.127 68.678C102.739 68.678 104.062 68.864 105.095 69.236C106.17 69.608 106.997 70.1453 107.575 70.848C108.195 71.5093 108.629 72.2947 108.877 73.204C109.125 74.1133 109.249 75.126 109.249 76.242C109.249 77.8953 108.96 79.528 108.381 81.14C107.803 82.7107 107.017 84.2193 106.025 85.666C105.075 87.0713 103.959 88.3733 102.677 89.572C101.437 90.7293 100.094 91.68 98.6474 92.424C99.3914 94.0773 100.177 95.896 101.003 97.88C101.871 99.8227 102.677 101.683 103.421 103.46C104.248 105.527 105.095 107.593 105.963 109.66L96.3534 113.008C95.5267 110.363 94.7827 107.883 94.1214 105.568C93.832 104.617 93.5427 103.646 93.2534 102.654C92.964 101.621 92.6954 100.649 92.4474 99.74C92.1994 98.8307 91.9927 98.0247 91.8274 97.322C91.662 96.578 91.5587 95.9787 91.5174 95.524L90.7114 95.772C90.4634 97.0947 90.1534 98.6447 89.7814 100.422C89.4507 102.199 89.1407 103.915 88.8514 105.568C88.4794 107.511 88.1074 109.474 87.7354 111.458L77.6914 114.062ZM92.2614 87.154C93.0467 87.0713 93.9974 86.7407 95.1134 86.162C96.2707 85.5833 97.366 84.9013 98.3994 84.116C99.4327 83.2893 100.321 82.442 101.065 81.574C101.809 80.706 102.181 79.9413 102.181 79.28C102.181 78.8253 102.037 78.474 101.747 78.226C101.458 77.9367 101.045 77.73 100.507 77.606C100.011 77.4407 99.4534 77.3373 98.8334 77.296C98.2134 77.2547 97.5727 77.234 96.9114 77.234C96.4567 77.234 95.9814 77.2547 95.4854 77.296C95.0307 77.296 94.6174 77.296 94.2454 77.296L92.2614 87.154ZM105.488 114.062L113.61 69.98L133.202 68.306C132.913 69.2153 132.665 70.1453 132.458 71.096C132.252 71.8813 132.045 72.708 131.838 73.576C131.673 74.4027 131.528 75.1467 131.404 75.808C130.991 75.8493 130.392 75.8907 129.606 75.932C128.862 75.932 128.056 75.9527 127.188 75.994C126.32 75.994 125.432 75.994 124.522 75.994C123.654 75.994 122.89 75.994 122.228 75.994L120.058 87.092C121.34 87.0093 122.538 86.9473 123.654 86.906C124.564 86.8647 125.494 86.844 126.444 86.844C127.395 86.844 128.098 86.8233 128.552 86.782C128.387 87.9393 128.222 89.076 128.056 90.192C127.932 91.308 127.767 92.4447 127.56 93.602C127.147 93.6433 126.465 93.6847 125.514 93.726C124.605 93.726 123.675 93.7467 122.724 93.788C121.65 93.8293 120.472 93.8707 119.19 93.912L117.082 105.32L126.134 103.894L125.514 110.962L105.488 114.062ZM131.703 114.062C132.654 109.515 133.563 105.031 134.431 100.608C134.803 98.748 135.175 96.8053 135.547 94.78C135.919 92.7547 136.27 90.7707 136.601 88.828C136.973 86.844 137.283 84.9427 137.531 83.124C137.82 81.264 138.068 79.5693 138.275 78.04C137.324 77.916 136.353 77.8747 135.361 77.916C134.41 77.9573 133.46 77.8333 132.509 77.544C132.55 76.8827 132.571 76.118 132.571 75.25C132.571 74.382 132.592 73.514 132.633 72.646C132.674 71.6953 132.716 70.6827 132.757 69.608C133.832 69.6907 134.906 69.7527 135.981 69.794C137.056 69.8353 138.13 69.856 139.205 69.856C141.313 69.856 143.338 69.8147 145.281 69.732C147.265 69.608 149.084 69.484 150.737 69.36C152.432 69.1947 154.085 69.0087 155.697 68.802L155.015 72.15C154.808 73.1007 154.602 74.072 154.395 75.064C154.23 76.056 154.064 76.9033 153.899 77.606C152.99 77.854 152.06 78.04 151.109 78.164C150.2 78.2467 149.29 78.3707 148.381 78.536C148.092 79.9413 147.782 81.512 147.451 83.248C147.12 84.9427 146.79 86.72 146.459 88.58C146.17 90.3987 145.88 92.2587 145.591 94.16C145.302 96.0613 145.012 97.88 144.723 99.616C144.062 103.708 143.442 107.945 142.863 112.326L131.703 114.062Z" fill="#00F0FF"/>
    <path opacity="0.9" d="M27.466 104.686C27.466 107.001 27.0113 109.109 26.102 111.01C25.234 112.87 24.0353 114.482 22.506 115.846C21.018 117.21 19.2407 118.264 17.174 119.008C15.1487 119.752 12.958 120.124 10.602 120.124C8.94867 120.124 7.29533 119.69 5.642 118.822C3.98867 117.913 2.39733 116.487 0.868 114.544L5.456 105.554C5.74533 106.091 6.17933 106.649 6.758 107.228C7.33667 107.765 7.97733 108.241 8.68 108.654C9.424 109.067 10.1473 109.419 10.85 109.708C11.594 109.956 12.2553 110.08 12.834 110.08C13.33 110.08 13.8467 109.997 14.384 109.832C14.9213 109.667 15.4173 109.419 15.872 109.088C16.3267 108.757 16.678 108.385 16.926 107.972C17.2153 107.517 17.36 107.001 17.36 106.422C17.36 105.43 17.0293 104.521 16.368 103.694C15.748 102.826 14.9627 102.02 14.012 101.276C13.0613 100.491 12.028 99.7053 10.912 98.92C9.796 98.1347 8.76267 97.308 7.812 96.44C6.90267 95.572 6.11733 94.6007 5.456 93.526C4.79467 92.4513 4.464 91.2527 4.464 89.93C4.464 87.7807 5.10467 85.776 6.386 83.916C7.66733 82.056 9.25867 80.4647 11.16 79.142C13.1027 77.778 15.2107 76.7033 17.484 75.918C19.7573 75.1327 21.9067 74.74 23.932 74.74C25.048 74.74 26.102 74.8847 27.094 75.174C28.086 75.422 28.9333 75.856 29.636 76.476C30.38 77.0547 30.9587 77.7987 31.372 78.708C31.8267 79.6173 32.054 80.754 32.054 82.118C32.054 82.6967 31.992 83.2753 31.868 83.854C31.7853 84.4327 31.7027 85.0527 31.62 85.714L22.63 88.318C22.7127 87.9873 22.7747 87.6567 22.816 87.326C22.8987 86.9953 22.94 86.6647 22.94 86.334C22.94 85.094 22.7127 84.2053 22.258 83.668C21.8447 83.0893 21.2867 82.8 20.584 82.8C20.2533 82.8 19.84 82.924 19.344 83.172C18.8893 83.42 18.414 83.7507 17.918 84.164C17.4633 84.536 17.0707 84.9907 16.74 85.528C16.4093 86.0653 16.244 86.644 16.244 87.264C16.244 88.256 16.5127 89.0827 17.05 89.744C17.6287 90.4053 18.3313 91.0253 19.158 91.604C19.9847 92.1827 20.8733 92.782 21.824 93.402C22.816 93.9807 23.7253 94.7453 24.552 95.696C25.3787 96.6467 26.0607 97.8453 26.598 99.292C27.1767 100.697 27.466 102.495 27.466 104.686ZM27.1366 120.062L35.2586 75.98L54.8506 74.306C54.5613 75.2153 54.3133 76.1453 54.1066 77.096C53.9 77.8813 53.6933 78.708 53.4866 79.576C53.3213 80.4027 53.1766 81.1467 53.0526 81.808C52.6393 81.8493 52.04 81.8907 51.2546 81.932C50.5106 81.932 49.7046 81.9527 48.8366 81.994C47.9686 81.994 47.08 81.994 46.1706 81.994C45.3026 81.994 44.538 81.994 43.8766 81.994L41.7066 93.092C42.988 93.0093 44.1866 92.9473 45.3026 92.906C46.212 92.8647 47.142 92.844 48.0926 92.844C49.0433 92.844 49.746 92.8233 50.2006 92.782C50.0353 93.9393 49.87 95.076 49.7046 96.192C49.5806 97.308 49.4153 98.4447 49.2086 99.602C48.7953 99.6433 48.1133 99.6847 47.1626 99.726C46.2533 99.726 45.3233 99.7467 44.3726 99.788C43.298 99.8293 42.12 99.8707 40.8386 99.912L38.7306 111.32L47.7826 109.894L47.1626 116.962L27.1366 120.062ZM74.2455 106.67C73.2535 108.943 72.1375 110.927 70.8975 112.622C69.6988 114.275 68.4175 115.681 67.0535 116.838C65.7308 117.954 64.3875 118.781 63.0235 119.318C61.6595 119.855 60.3368 120.124 59.0555 120.124C57.7742 120.124 56.5962 119.835 55.5215 119.256C54.4882 118.677 53.5788 117.809 52.7935 116.652C52.0082 115.495 51.3675 114.069 50.8715 112.374C50.4168 110.679 50.1895 108.695 50.1895 106.422C50.1895 102.537 50.7268 98.7133 51.8015 94.952C52.8762 91.1493 54.3848 87.7393 56.3275 84.722C58.2702 81.7047 60.5642 79.2867 63.2095 77.468C65.8962 75.608 68.8515 74.678 72.0755 74.678C73.0675 74.678 74.0182 74.8847 74.9275 75.298C75.8368 75.7113 76.6222 76.29 77.2835 77.034C77.9448 77.778 78.4615 78.6873 78.8335 79.762C79.2468 80.8367 79.4535 82.0353 79.4535 83.358C79.4535 83.606 79.4535 83.8747 79.4535 84.164C79.4535 84.412 79.4328 84.6807 79.3915 84.97L71.2695 87.14C70.7735 86.1067 70.1948 85.59 69.5335 85.59C68.8722 85.59 68.1695 85.9827 67.4255 86.768C66.7228 87.512 66.0202 88.504 65.3175 89.744C64.6148 90.9427 63.9328 92.3067 63.2715 93.836C62.6102 95.324 62.0315 96.8327 61.5355 98.362C61.0395 99.8913 60.6262 101.359 60.2955 102.764C60.0062 104.128 59.8615 105.244 59.8615 106.112C59.8615 107.435 60.0268 108.365 60.3575 108.902C60.7295 109.439 61.2048 109.708 61.7835 109.708C62.2382 109.708 62.7548 109.543 63.3335 109.212C63.9122 108.84 64.4495 108.385 64.9455 107.848C65.4415 107.269 65.8962 106.629 66.3095 105.926C66.7228 105.223 67.0122 104.521 67.1775 103.818L74.2455 106.67ZM73.6914 120.062C74.8074 114.565 75.882 109.191 76.9154 103.942C77.2874 101.71 77.7007 99.3953 78.1554 96.998C78.61 94.5593 79.0234 92.162 79.3954 89.806C79.8087 87.4087 80.1807 85.1147 80.5114 82.924C80.8834 80.692 81.1727 78.6667 81.3794 76.848C83.7354 76.104 86.2774 75.5667 89.0054 75.236C91.7334 74.864 94.4407 74.678 97.1274 74.678C98.7394 74.678 100.062 74.864 101.095 75.236C102.17 75.608 102.997 76.1453 103.575 76.848C104.195 77.5093 104.629 78.2947 104.877 79.204C105.125 80.1133 105.249 81.126 105.249 82.242C105.249 83.8953 104.96 85.528 104.381 87.14C103.803 88.7107 103.017 90.2193 102.025 91.666C101.075 93.0713 99.9587 94.3733 98.6774 95.572C97.4374 96.7293 96.094 97.68 94.6474 98.424C95.3914 100.077 96.1767 101.896 97.0034 103.88C97.8714 105.823 98.6774 107.683 99.4214 109.46C100.248 111.527 101.095 113.593 101.963 115.66L92.3534 119.008C91.5267 116.363 90.7827 113.883 90.1214 111.568C89.832 110.617 89.5427 109.646 89.2534 108.654C88.964 107.621 88.6954 106.649 88.4474 105.74C88.1994 104.831 87.9927 104.025 87.8274 103.322C87.662 102.578 87.5587 101.979 87.5174 101.524L86.7114 101.772C86.4634 103.095 86.1534 104.645 85.7814 106.422C85.4507 108.199 85.1407 109.915 84.8514 111.568C84.4794 113.511 84.1074 115.474 83.7354 117.458L73.6914 120.062ZM88.2614 93.154C89.0467 93.0713 89.9974 92.7407 91.1134 92.162C92.2707 91.5833 93.366 90.9013 94.3994 90.116C95.4327 89.2893 96.3214 88.442 97.0654 87.574C97.8094 86.706 98.1814 85.9413 98.1814 85.28C98.1814 84.8253 98.0367 84.474 97.7474 84.226C97.458 83.9367 97.0447 83.73 96.5074 83.606C96.0114 83.4407 95.4534 83.3373 94.8334 83.296C94.2134 83.2547 93.5727 83.234 92.9114 83.234C92.4567 83.234 91.9814 83.2547 91.4854 83.296C91.0307 83.296 90.6174 83.296 90.2454 83.296L88.2614 93.154ZM101.488 120.062L109.61 75.98L129.202 74.306C128.913 75.2153 128.665 76.1453 128.458 77.096C128.252 77.8813 128.045 78.708 127.838 79.576C127.673 80.4027 127.528 81.1467 127.404 81.808C126.991 81.8493 126.392 81.8907 125.606 81.932C124.862 81.932 124.056 81.9527 123.188 81.994C122.32 81.994 121.432 81.994 120.522 81.994C119.654 81.994 118.89 81.994 118.228 81.994L116.058 93.092C117.34 93.0093 118.538 92.9473 119.654 92.906C120.564 92.8647 121.494 92.844 122.444 92.844C123.395 92.844 124.098 92.8233 124.552 92.782C124.387 93.9393 124.222 95.076 124.056 96.192C123.932 97.308 123.767 98.4447 123.56 99.602C123.147 99.6433 122.465 99.6847 121.514 99.726C120.605 99.726 119.675 99.7467 118.724 99.788C117.65 99.8293 116.472 99.8707 115.19 99.912L113.082 111.32L122.134 109.894L121.514 116.962L101.488 120.062ZM127.703 120.062C128.654 115.515 129.563 111.031 130.431 106.608C130.803 104.748 131.175 102.805 131.547 100.78C131.919 98.7547 132.27 96.7707 132.601 94.828C132.973 92.844 133.283 90.9427 133.531 89.124C133.82 87.264 134.068 85.5693 134.275 84.04C133.324 83.916 132.353 83.8747 131.361 83.916C130.41 83.9573 129.46 83.8333 128.509 83.544C128.55 82.8827 128.571 82.118 128.571 81.25C128.571 80.382 128.592 79.514 128.633 78.646C128.674 77.6953 128.716 76.6827 128.757 75.608C129.832 75.6907 130.906 75.7527 131.981 75.794C133.056 75.8353 134.13 75.856 135.205 75.856C137.313 75.856 139.338 75.8147 141.281 75.732C143.265 75.608 145.084 75.484 146.737 75.36C148.432 75.1947 150.085 75.0087 151.697 74.802L151.015 78.15C150.808 79.1007 150.602 80.072 150.395 81.064C150.23 82.056 150.064 82.9033 149.899 83.606C148.99 83.854 148.06 84.04 147.109 84.164C146.2 84.2467 145.29 84.3707 144.381 84.536C144.092 85.9413 143.782 87.512 143.451 89.248C143.12 90.9427 142.79 92.72 142.459 94.58C142.17 96.3987 141.88 98.2587 141.591 100.16C141.302 102.061 141.012 103.88 140.723 105.616C140.062 109.708 139.442 113.945 138.863 118.326L127.703 120.062Z" fill="#FF0000"/>
    <path d="M195.474 184.67C194.482 186.943 193.366 188.927 192.126 190.622C190.927 192.275 189.646 193.681 188.282 194.838C186.959 195.954 185.616 196.781 184.252 197.318C182.888 197.855 181.565 198.124 180.284 198.124C179.003 198.124 177.825 197.835 176.75 197.256C175.717 196.677 174.807 195.809 174.022 194.652C173.237 193.495 172.596 192.069 172.1 190.374C171.645 188.679 171.418 186.695 171.418 184.422C171.418 180.537 171.955 176.713 173.03 172.952C174.105 169.149 175.613 165.739 177.556 162.722C179.499 159.705 181.793 157.287 184.438 155.468C187.125 153.608 190.08 152.678 193.304 152.678C194.296 152.678 195.247 152.885 196.156 153.298C197.065 153.711 197.851 154.29 198.512 155.034C199.173 155.778 199.69 156.687 200.062 157.762C200.475 158.837 200.682 160.035 200.682 161.358C200.682 161.606 200.682 161.875 200.682 162.164C200.682 162.412 200.661 162.681 200.62 162.97L192.498 165.14C192.002 164.107 191.423 163.59 190.762 163.59C190.101 163.59 189.398 163.983 188.654 164.768C187.951 165.512 187.249 166.504 186.546 167.744C185.843 168.943 185.161 170.307 184.5 171.836C183.839 173.324 183.26 174.833 182.764 176.362C182.268 177.891 181.855 179.359 181.524 180.764C181.235 182.128 181.09 183.244 181.09 184.112C181.09 185.435 181.255 186.365 181.586 186.902C181.958 187.439 182.433 187.708 183.012 187.708C183.467 187.708 183.983 187.543 184.562 187.212C185.141 186.84 185.678 186.385 186.174 185.848C186.67 185.269 187.125 184.629 187.538 183.926C187.951 183.223 188.241 182.521 188.406 181.818L195.474 184.67ZM194.92 198.062C196.036 192.565 197.111 187.191 198.144 181.942C198.516 179.71 198.929 177.395 199.384 174.998C199.839 172.559 200.252 170.162 200.624 167.806C201.037 165.409 201.409 163.115 201.74 160.924C202.112 158.692 202.401 156.667 202.608 154.848C204.964 154.104 207.506 153.567 210.234 153.236C212.962 152.864 215.669 152.678 218.356 152.678C219.968 152.678 221.291 152.864 222.324 153.236C223.399 153.608 224.225 154.145 224.804 154.848C225.424 155.509 225.858 156.295 226.106 157.204C226.354 158.113 226.478 159.126 226.478 160.242C226.478 161.895 226.189 163.528 225.61 165.14C225.031 166.711 224.246 168.219 223.254 169.666C222.303 171.071 221.187 172.373 219.906 173.572C218.666 174.729 217.323 175.68 215.876 176.424C216.62 178.077 217.405 179.896 218.232 181.88C219.1 183.823 219.906 185.683 220.65 187.46C221.477 189.527 222.324 191.593 223.192 193.66L213.582 197.008C212.755 194.363 212.011 191.883 211.35 189.568C211.061 188.617 210.771 187.646 210.482 186.654C210.193 185.621 209.924 184.649 209.676 183.74C209.428 182.831 209.221 182.025 209.056 181.322C208.891 180.578 208.787 179.979 208.746 179.524L207.94 179.772C207.692 181.095 207.382 182.645 207.01 184.422C206.679 186.199 206.369 187.915 206.08 189.568C205.708 191.511 205.336 193.474 204.964 195.458L194.92 198.062ZM209.49 171.154C210.275 171.071 211.226 170.741 212.342 170.162C213.499 169.583 214.595 168.901 215.628 168.116C216.661 167.289 217.55 166.442 218.294 165.574C219.038 164.706 219.41 163.941 219.41 163.28C219.41 162.825 219.265 162.474 218.976 162.226C218.687 161.937 218.273 161.73 217.736 161.606C217.24 161.441 216.682 161.337 216.062 161.296C215.442 161.255 214.801 161.234 214.14 161.234C213.685 161.234 213.21 161.255 212.714 161.296C212.259 161.296 211.846 161.296 211.474 161.296L209.49 171.154ZM248.013 185.91C247.434 188.266 246.607 190.271 245.533 191.924C244.499 193.577 243.259 194.941 241.813 196.016C240.407 197.091 238.899 197.876 237.287 198.372C235.675 198.868 234.063 199.116 232.451 199.116C231.5 199.116 230.529 198.951 229.537 198.62C228.545 198.331 227.656 197.876 226.871 197.256C226.085 196.636 225.424 195.851 224.887 194.9C224.391 193.949 224.143 192.833 224.143 191.552C224.143 191.387 224.143 191.221 224.143 191.056C224.143 190.891 224.163 190.725 224.205 190.56C224.37 188.865 224.639 186.819 225.011 184.422C225.383 182.025 225.775 179.524 226.189 176.92C226.602 174.316 227.057 171.712 227.553 169.108C228.049 166.463 228.483 164.065 228.855 161.916C229.268 159.767 229.619 157.989 229.909 156.584C230.198 155.137 230.384 154.249 230.467 153.918C231.335 153.835 232.368 153.732 233.567 153.608C234.765 153.484 235.881 153.381 236.915 153.298C238.196 153.174 239.457 153.05 240.697 152.926C239.622 157.927 238.671 162.453 237.845 166.504C237.473 168.24 237.101 169.976 236.729 171.712C236.398 173.448 236.067 175.039 235.737 176.486C235.447 177.933 235.179 179.193 234.931 180.268C234.724 181.301 234.538 182.149 234.373 182.81C234.249 183.471 234.083 184.319 233.877 185.352C233.711 186.344 233.629 187.253 233.629 188.08C233.629 188.741 233.794 189.299 234.125 189.754C234.455 190.167 234.869 190.374 235.365 190.374C236.067 190.374 236.646 190.105 237.101 189.568C237.555 188.989 237.927 188.307 238.217 187.522C238.547 186.737 238.775 185.951 238.899 185.166C239.064 184.339 239.209 183.699 239.333 183.244C239.581 182.045 239.849 180.723 240.139 179.276C240.469 177.788 240.779 176.259 241.069 174.688C241.399 173.076 241.709 171.443 241.999 169.79C242.329 168.137 242.639 166.525 242.929 164.954C243.631 161.317 244.313 157.555 244.975 153.67L254.399 153.05C254.399 153.05 254.295 153.587 254.089 154.662C253.882 155.737 253.613 157.163 253.283 158.94C252.952 160.717 252.58 162.743 252.167 165.016C251.795 167.289 251.361 169.666 250.865 172.146C250.369 174.585 249.873 177.003 249.377 179.4C248.922 181.756 248.467 183.926 248.013 185.91ZM275.661 182.686C275.661 185.001 275.207 187.109 274.297 189.01C273.429 190.87 272.231 192.482 270.701 193.846C269.213 195.21 267.436 196.264 265.369 197.008C263.344 197.752 261.153 198.124 258.797 198.124C257.144 198.124 255.491 197.69 253.837 196.822C252.184 195.913 250.593 194.487 249.063 192.544L253.651 183.554C253.941 184.091 254.375 184.649 254.953 185.228C255.532 185.765 256.173 186.241 256.875 186.654C257.619 187.067 258.343 187.419 259.045 187.708C259.789 187.956 260.451 188.08 261.029 188.08C261.525 188.08 262.042 187.997 262.579 187.832C263.117 187.667 263.613 187.419 264.067 187.088C264.522 186.757 264.873 186.385 265.121 185.972C265.411 185.517 265.555 185.001 265.555 184.422C265.555 183.43 265.225 182.521 264.563 181.694C263.943 180.826 263.158 180.02 262.207 179.276C261.257 178.491 260.223 177.705 259.107 176.92C257.991 176.135 256.958 175.308 256.007 174.44C255.098 173.572 254.313 172.601 253.651 171.526C252.99 170.451 252.659 169.253 252.659 167.93C252.659 165.781 253.3 163.776 254.581 161.916C255.863 160.056 257.454 158.465 259.355 157.142C261.298 155.778 263.406 154.703 265.679 153.918C267.953 153.133 270.102 152.74 272.127 152.74C273.243 152.74 274.297 152.885 275.289 153.174C276.281 153.422 277.129 153.856 277.831 154.476C278.575 155.055 279.154 155.799 279.567 156.708C280.022 157.617 280.249 158.754 280.249 160.118C280.249 160.697 280.187 161.275 280.063 161.854C279.981 162.433 279.898 163.053 279.815 163.714L270.825 166.318C270.908 165.987 270.97 165.657 271.011 165.326C271.094 164.995 271.135 164.665 271.135 164.334C271.135 163.094 270.908 162.205 270.453 161.668C270.04 161.089 269.482 160.8 268.779 160.8C268.449 160.8 268.035 160.924 267.539 161.172C267.085 161.42 266.609 161.751 266.113 162.164C265.659 162.536 265.266 162.991 264.935 163.528C264.605 164.065 264.439 164.644 264.439 165.264C264.439 166.256 264.708 167.083 265.245 167.744C265.824 168.405 266.527 169.025 267.353 169.604C268.18 170.183 269.069 170.782 270.019 171.402C271.011 171.981 271.921 172.745 272.747 173.696C273.574 174.647 274.256 175.845 274.793 177.292C275.372 178.697 275.661 180.495 275.661 182.686ZM275.332 198.124C276.489 192.337 277.605 186.695 278.68 181.198C279.093 178.842 279.527 176.403 279.982 173.882C280.437 171.319 280.85 168.798 281.222 166.318C281.635 163.838 282.007 161.441 282.338 159.126C282.71 156.77 282.999 154.641 283.206 152.74C284.157 152.781 285.025 152.843 285.81 152.926C286.637 152.967 287.443 153.009 288.228 153.05C289.013 153.091 289.799 153.133 290.584 153.174C291.411 153.174 292.299 153.174 293.25 153.174C292.547 156.109 291.845 159.043 291.142 161.978C290.481 164.913 289.861 167.868 289.282 170.844L295.42 170.162C295.999 167.227 296.515 164.396 296.97 161.668C297.425 158.899 298.024 156.047 298.768 153.112C299.719 152.947 300.773 152.823 301.93 152.74C303.087 152.616 304.162 152.513 305.154 152.43C306.146 152.347 306.973 152.285 307.634 152.244C308.337 152.161 308.688 152.12 308.688 152.12C308.109 153.98 307.551 156.026 307.014 158.258C306.518 160.449 306.022 162.743 305.526 165.14C305.03 167.496 304.555 169.893 304.1 172.332C303.645 174.771 303.232 177.085 302.86 179.276C301.951 184.525 301.103 189.899 300.318 195.396L290.646 196.512C291.183 194.032 291.659 191.614 292.072 189.258C292.485 187.274 292.899 185.207 293.312 183.058C293.767 180.909 294.118 179.069 294.366 177.54L288.352 178.098C288.063 179.669 287.711 181.487 287.298 183.554C286.926 185.621 286.575 187.584 286.244 189.444C285.789 191.676 285.335 193.908 284.88 196.14L275.332 198.124Z" fill="white"/>
    <path d="M29.466 101.686C29.466 104.001 29.0113 106.109 28.102 108.01C27.234 109.87 26.0353 111.482 24.506 112.846C23.018 114.21 21.2407 115.264 19.174 116.008C17.1487 116.752 14.958 117.124 12.602 117.124C10.9487 117.124 9.29533 116.69 7.642 115.822C5.98867 114.913 4.39733 113.487 2.868 111.544L7.456 102.554C7.74533 103.091 8.17933 103.649 8.758 104.228C9.33667 104.765 9.97733 105.241 10.68 105.654C11.424 106.067 12.1473 106.419 12.85 106.708C13.594 106.956 14.2553 107.08 14.834 107.08C15.33 107.08 15.8467 106.997 16.384 106.832C16.9213 106.667 17.4173 106.419 17.872 106.088C18.3267 105.757 18.678 105.385 18.926 104.972C19.2153 104.517 19.36 104.001 19.36 103.422C19.36 102.43 19.0293 101.521 18.368 100.694C17.748 99.826 16.9627 99.02 16.012 98.276C15.0613 97.4907 14.028 96.7053 12.912 95.92C11.796 95.1347 10.7627 94.308 9.812 93.44C8.90267 92.572 8.11733 91.6007 7.456 90.526C6.79467 89.4513 6.464 88.2527 6.464 86.93C6.464 84.7807 7.10467 82.776 8.386 80.916C9.66733 79.056 11.2587 77.4647 13.16 76.142C15.1027 74.778 17.2107 73.7033 19.484 72.918C21.7573 72.1327 23.9067 71.74 25.932 71.74C27.048 71.74 28.102 71.8847 29.094 72.174C30.086 72.422 30.9333 72.856 31.636 73.476C32.38 74.0547 32.9587 74.7987 33.372 75.708C33.8267 76.6173 34.054 77.754 34.054 79.118C34.054 79.6967 33.992 80.2753 33.868 80.854C33.7853 81.4327 33.7027 82.0527 33.62 82.714L24.63 85.318C24.7127 84.9873 24.7747 84.6567 24.816 84.326C24.8987 83.9953 24.94 83.6647 24.94 83.334C24.94 82.094 24.7127 81.2053 24.258 80.668C23.8447 80.0893 23.2867 79.8 22.584 79.8C22.2533 79.8 21.84 79.924 21.344 80.172C20.8893 80.42 20.414 80.7507 19.918 81.164C19.4633 81.536 19.0707 81.9907 18.74 82.528C18.4093 83.0653 18.244 83.644 18.244 84.264C18.244 85.256 18.5127 86.0827 19.05 86.744C19.6287 87.4053 20.3313 88.0253 21.158 88.604C21.9847 89.1827 22.8733 89.782 23.824 90.402C24.816 90.9807 25.7253 91.7453 26.552 92.696C27.3787 93.6467 28.0607 94.8453 28.598 96.292C29.1767 97.6973 29.466 99.4953 29.466 101.686ZM29.1366 117.062L37.2586 72.98L56.8506 71.306C56.5613 72.2153 56.3133 73.1453 56.1066 74.096C55.9 74.8813 55.6933 75.708 55.4866 76.576C55.3213 77.4027 55.1766 78.1467 55.0526 78.808C54.6393 78.8493 54.04 78.8907 53.2546 78.932C52.5106 78.932 51.7046 78.9527 50.8366 78.994C49.9686 78.994 49.08 78.994 48.1706 78.994C47.3026 78.994 46.538 78.994 45.8766 78.994L43.7066 90.092C44.988 90.0093 46.1866 89.9473 47.3026 89.906C48.212 89.8647 49.142 89.844 50.0926 89.844C51.0433 89.844 51.746 89.8233 52.2006 89.782C52.0353 90.9393 51.87 92.076 51.7046 93.192C51.5806 94.308 51.4153 95.4447 51.2086 96.602C50.7953 96.6433 50.1133 96.6847 49.1626 96.726C48.2533 96.726 47.3233 96.7467 46.3726 96.788C45.298 96.8293 44.12 96.8707 42.8386 96.912L40.7306 108.32L49.7826 106.894L49.1626 113.962L29.1366 117.062ZM76.2455 103.67C75.2535 105.943 74.1375 107.927 72.8975 109.622C71.6988 111.275 70.4175 112.681 69.0535 113.838C67.7308 114.954 66.3875 115.781 65.0235 116.318C63.6595 116.855 62.3368 117.124 61.0555 117.124C59.7742 117.124 58.5962 116.835 57.5215 116.256C56.4882 115.677 55.5788 114.809 54.7935 113.652C54.0082 112.495 53.3675 111.069 52.8715 109.374C52.4168 107.679 52.1895 105.695 52.1895 103.422C52.1895 99.5367 52.7268 95.7133 53.8015 91.952C54.8762 88.1493 56.3848 84.7393 58.3275 81.722C60.2702 78.7047 62.5642 76.2867 65.2095 74.468C67.8962 72.608 70.8515 71.678 74.0755 71.678C75.0675 71.678 76.0182 71.8847 76.9275 72.298C77.8368 72.7113 78.6222 73.29 79.2835 74.034C79.9448 74.778 80.4615 75.6873 80.8335 76.762C81.2468 77.8367 81.4535 79.0353 81.4535 80.358C81.4535 80.606 81.4535 80.8747 81.4535 81.164C81.4535 81.412 81.4328 81.6807 81.3915 81.97L73.2695 84.14C72.7735 83.1067 72.1948 82.59 71.5335 82.59C70.8722 82.59 70.1695 82.9827 69.4255 83.768C68.7228 84.512 68.0202 85.504 67.3175 86.744C66.6148 87.9427 65.9328 89.3067 65.2715 90.836C64.6102 92.324 64.0315 93.8327 63.5355 95.362C63.0395 96.8913 62.6262 98.3587 62.2955 99.764C62.0062 101.128 61.8615 102.244 61.8615 103.112C61.8615 104.435 62.0268 105.365 62.3575 105.902C62.7295 106.439 63.2048 106.708 63.7835 106.708C64.2382 106.708 64.7548 106.543 65.3335 106.212C65.9122 105.84 66.4495 105.385 66.9455 104.848C67.4415 104.269 67.8962 103.629 68.3095 102.926C68.7228 102.223 69.0122 101.521 69.1775 100.818L76.2455 103.67ZM75.6914 117.062C76.8074 111.565 77.882 106.191 78.9154 100.942C79.2874 98.71 79.7007 96.3953 80.1554 93.998C80.61 91.5593 81.0234 89.162 81.3954 86.806C81.8087 84.4087 82.1807 82.1147 82.5114 79.924C82.8834 77.692 83.1727 75.6667 83.3794 73.848C85.7354 73.104 88.2774 72.5667 91.0054 72.236C93.7334 71.864 96.4407 71.678 99.1274 71.678C100.739 71.678 102.062 71.864 103.095 72.236C104.17 72.608 104.997 73.1453 105.575 73.848C106.195 74.5093 106.629 75.2947 106.877 76.204C107.125 77.1133 107.249 78.126 107.249 79.242C107.249 80.8953 106.96 82.528 106.381 84.14C105.803 85.7107 105.017 87.2193 104.025 88.666C103.075 90.0713 101.959 91.3733 100.677 92.572C99.4374 93.7293 98.094 94.68 96.6474 95.424C97.3914 97.0773 98.1767 98.896 99.0034 100.88C99.8714 102.823 100.677 104.683 101.421 106.46C102.248 108.527 103.095 110.593 103.963 112.66L94.3534 116.008C93.5267 113.363 92.7827 110.883 92.1214 108.568C91.832 107.617 91.5427 106.646 91.2534 105.654C90.964 104.621 90.6954 103.649 90.4474 102.74C90.1994 101.831 89.9927 101.025 89.8274 100.322C89.662 99.578 89.5587 98.9787 89.5174 98.524L88.7114 98.772C88.4634 100.095 88.1534 101.645 87.7814 103.422C87.4507 105.199 87.1407 106.915 86.8514 108.568C86.4794 110.511 86.1074 112.474 85.7354 114.458L75.6914 117.062ZM90.2614 90.154C91.0467 90.0713 91.9974 89.7407 93.1134 89.162C94.2707 88.5833 95.366 87.9013 96.3994 87.116C97.4327 86.2893 98.3214 85.442 99.0654 84.574C99.8094 83.706 100.181 82.9413 100.181 82.28C100.181 81.8253 100.037 81.474 99.7474 81.226C99.458 80.9367 99.0447 80.73 98.5074 80.606C98.0114 80.4407 97.4534 80.3373 96.8334 80.296C96.2134 80.2547 95.5727 80.234 94.9114 80.234C94.4567 80.234 93.9814 80.2547 93.4854 80.296C93.0307 80.296 92.6174 80.296 92.2454 80.296L90.2614 90.154ZM103.488 117.062L111.61 72.98L131.202 71.306C130.913 72.2153 130.665 73.1453 130.458 74.096C130.252 74.8813 130.045 75.708 129.838 76.576C129.673 77.4027 129.528 78.1467 129.404 78.808C128.991 78.8493 128.392 78.8907 127.606 78.932C126.862 78.932 126.056 78.9527 125.188 78.994C124.32 78.994 123.432 78.994 122.522 78.994C121.654 78.994 120.89 78.994 120.228 78.994L118.058 90.092C119.34 90.0093 120.538 89.9473 121.654 89.906C122.564 89.8647 123.494 89.844 124.444 89.844C125.395 89.844 126.098 89.8233 126.552 89.782C126.387 90.9393 126.222 92.076 126.056 93.192C125.932 94.308 125.767 95.4447 125.56 96.602C125.147 96.6433 124.465 96.6847 123.514 96.726C122.605 96.726 121.675 96.7467 120.724 96.788C119.65 96.8293 118.472 96.8707 117.19 96.912L115.082 108.32L124.134 106.894L123.514 113.962L103.488 117.062ZM129.703 117.062C130.654 112.515 131.563 108.031 132.431 103.608C132.803 101.748 133.175 99.8053 133.547 97.78C133.919 95.7547 134.27 93.7707 134.601 91.828C134.973 89.844 135.283 87.9427 135.531 86.124C135.82 84.264 136.068 82.5693 136.275 81.04C135.324 80.916 134.353 80.8747 133.361 80.916C132.41 80.9573 131.46 80.8333 130.509 80.544C130.55 79.8827 130.571 79.118 130.571 78.25C130.571 77.382 130.592 76.514 130.633 75.646C130.674 74.6953 130.716 73.6827 130.757 72.608C131.832 72.6907 132.906 72.7527 133.981 72.794C135.056 72.8353 136.13 72.856 137.205 72.856C139.313 72.856 141.338 72.8147 143.281 72.732C145.265 72.608 147.084 72.484 148.737 72.36C150.432 72.1947 152.085 72.0087 153.697 71.802L153.015 75.15C152.808 76.1007 152.602 77.072 152.395 78.064C152.23 79.056 152.064 79.9033 151.899 80.606C150.99 80.854 150.06 81.04 149.109 81.164C148.2 81.2467 147.29 81.3707 146.381 81.536C146.092 82.9413 145.782 84.512 145.451 86.248C145.12 87.9427 144.79 89.72 144.459 91.58C144.17 93.3987 143.88 95.2587 143.591 97.16C143.302 99.0613 143.012 100.88 142.723 102.616C142.062 106.708 141.442 110.945 140.863 115.326L129.703 117.062Z" fill="white"/>
    <g filter="url(#filter0_b_59_8)">
        <path d="M99.7603 142.959C99.7603 142.959 107.553 157.253 149.579 172.137C191.605 187.022 194 141.983 194 141.983C192.88 133.98 179.55 117.743 174.729 113.641C163.828 104.364 151.049 104.993 145.848 110.195C140.646 104.993 129.256 104.278 121.759 110.195C110.168 119.343 99.7601 137.213 99.7603 142.959Z" fill="#1AF1FF"/>
    </g>
    <g filter="url(#filter1_b_59_8)">
        <path d="M103.281 142.518C103.281 142.518 110.081 153.766 150.106 167.941C190.131 182.117 191.113 142.518 191.113 142.518C190.046 134.896 178.009 120.979 173.418 117.072C163.037 108.237 150.866 108.836 145.912 113.79C140.959 108.836 130.111 108.155 122.971 113.79C111.932 122.503 103.281 137.045 103.281 142.518Z" fill="url(#paint0_radial_59_8)"/>
    </g>
    <path d="M167.607 148.24C160.931 148.24 159.901 146.368 144.048 141.634L171.24 138.442L177.255 140.934C176.411 142.622 172.891 148.24 167.607 148.24Z" fill="black"/>
    <path d="M128.977 140.212C127.459 139.965 117.122 139.426 108.665 140.212L120.293 136.082L128.977 140.212Z" fill="black"/>
    <path d="M149.341 145.406C158.038 143.424 159.689 151.461 161.891 152.892" stroke="black" stroke-width="2" stroke-linecap="round"/>
    <path d="M123.16 140.27C121.118 140.075 118.095 138.036 117.447 137.104C122.795 134.916 127.05 132.369 131.791 130.91C137.321 129.208 137.868 132.369 144.432 133.584C150.996 134.8 153.427 129.694 158.776 129.208C164.59 128.68 169.375 137.231 175.221 140.27C174.054 144.743 166.06 143.794 162.819 143.146C162.819 145.941 142.731 145.253 137.504 145.253C131.791 145.253 130.332 144.281 127.901 140.27C127.172 140.351 125.202 140.464 123.16 140.27Z" fill="white"/>
    <path d="M104.357 140.044C113.089 140.044 126.275 131.302 132.439 130.789C138.602 130.275 143.479 134.712 148.066 134.138C152.654 133.565 155.426 128.025 161.733 129.816C168.041 131.607 169.073 139.229 178.161 141.052C184.81 142.386 189.759 141.209 190.36 141.052" stroke="black" stroke-width="2" stroke-linecap="round"/>
    <path d="M147.054 118.844C147.57 123.419 147.269 126.899 147.054 128.067" stroke="black" stroke-width="2" stroke-linecap="round"/>
    <path d="M166.094 120.178C166.094 122.543 165.27 123.982 164.323 124.732" stroke="black" stroke-width="2" stroke-linecap="round"/>
    <path d="M128.106 140.408C127.277 142.11 117.596 141.008 116.921 136.954" stroke="black" stroke-width="2" stroke-linecap="round"/>
    <path d="M176.353 128.812C175.977 130.692 174.742 131.073 173.781 131.182" stroke="black" stroke-width="2" stroke-linecap="round"/>
    <path d="M126.385 121.08C126.499 122.33 127.341 124.036 128.146 124.936" stroke="black" stroke-width="2" stroke-linecap="round"/>
    <path d="M146.347 134.183C146.416 138.747 146.397 142.264 146.368 144.131C146.359 144.693 146.813 145.21 147.336 145.419C148.821 146.013 151.223 147.529 152.42 148.993" stroke="black" stroke-width="2" stroke-linecap="round"/>
    <path d="M128.146 134.682C128.146 139.32 128.878 143.347 132.418 144.568C135.957 145.788 145.721 145.91 146.209 144.568" stroke="black" stroke-width="2" stroke-linecap="round"/>
    <path d="M163.636 131.12C165.854 144.08 162.109 144.94 160.735 145.169C157.267 145.747 150.832 146.021 146.569 144.794" stroke="black" stroke-width="2" stroke-linecap="round"/>
    <ellipse cx="173.211" cy="158.24" rx="1.159" ry="2.31785" transform="rotate(-24.2836 173.211 158.24)" fill="white"/>
    <path d="M161.044 157.109C160.341 157.136 160.059 158.014 159.213 157.763C156.846 157.062 154.25 154.09 152.015 154.09C150.913 154.09 150.555 154.34 149.662 154.787C147.74 155.748 144.458 154.029 142.988 153.084C141.049 151.837 135.781 150.351 131.059 149.357C136.919 151.221 140.089 152.339 146.051 157.477C148.671 160.003 150.051 156.999 152.127 158.037C158.685 162.916 158.412 159.413 159.213 159.693C160.014 159.974 161.775 161.367 163.145 162.583C164.516 163.8 166.325 162.014 164.936 160.468C163.547 158.922 168.431 158.96 170.187 160.468C166.554 154.787 164.897 158.513 164.141 158.513C162.565 158.513 162.689 157.045 161.044 157.109Z" fill="white"/>
    <defs>
        <filter id="filter0_b_59_8" x="95.7603" y="102.021" width="102.24" height="77.1328" filterUnits="userSpaceOnUse" color-interpolation-filters="sRGB">
            <feFlood flood-opacity="0" result="BackgroundImageFix"/>
            <feGaussianBlur in="BackgroundImageFix" stdDeviation="2"/>
            <feComposite in2="SourceAlpha" operator="in" result="effect1_backgroundBlur_59_8"/>
            <feBlend mode="normal" in="SourceGraphic" in2="effect1_backgroundBlur_59_8" result="shape"/>
        </filter>
        <filter id="filter1_b_59_8" x="99.2808" y="105.815" width="95.832" height="69.1909" filterUnits="userSpaceOnUse" color-interpolation-filters="sRGB">
            <feFlood flood-opacity="0" result="BackgroundImageFix"/>
            <feGaussianBlur in="BackgroundImageFix" stdDeviation="2"/>
            <feComposite in2="SourceAlpha" operator="in" result="effect1_backgroundBlur_59_8"/>
            <feBlend mode="normal" in="SourceGraphic" in2="effect1_backgroundBlur_59_8" result="shape"/>
        </filter>
        <radialGradient id="paint0_radial_59_8" cx="0" cy="0" r="1" gradientUnits="userSpaceOnUse" gradientTransform="translate(150.532 136.321) rotate(68.9827) scale(54.2792 67.849)">
            <stop offset="0.149202" stop-color="#B50001"/>
            <stop offset="1" stop-color="#FE1919"/>
        </radialGradient>
    </defs>
</svg>
