<svg width="70" height="63" viewBox="0 0 70 63" fill="none" xmlns="http://www.w3.org/2000/svg">
    <g filter="url(#filter0_b_159_83)">
        <path d="M7.82424 31.1283L35 58.3143L62.1758 31.1283C68.6081 24.6936 68.6081 14.2608 62.1758 7.82606C55.7434 1.39132 45.3146 1.39132 38.8822 7.82606L35 11.7098L31.1177 7.82605C24.6854 1.39131 14.2566 1.39132 7.82424 7.82606C1.39192 14.2608 1.39192 24.6936 7.82424 31.1283Z" fill="url(#paint0_radial_159_83)"/>
        <path d="M33.9391 59.3747L35 60.436L36.0609 59.3747L63.2366 32.1888C70.2545 25.1683 70.2545 13.7861 63.2366 6.7656C56.2185 -0.255196 44.8395 -0.255196 37.8214 6.76559L35 9.58805L32.1786 6.76559C25.1604 -0.2552 13.7815 -0.255196 6.76338 6.7656C-0.254464 13.7861 -0.254458 25.1683 6.76339 32.1888L33.9391 59.3747Z" stroke="white" stroke-width="3"/>
    </g>
    <path d="M16.2333 33.1021C16.6419 31.141 17.03 29.2411 17.3977 27.4026C17.5339 26.6127 17.6769 25.7955 17.8267 24.9511C17.9902 24.1068 18.14 23.276 18.2762 22.4589C18.4124 21.6281 18.5349 20.8382 18.6439 20.0891C18.7528 19.3265 18.8345 18.6387 18.889 18.0259C19.0661 18.0395 19.2159 18.0463 19.3384 18.0463C19.461 18.0463 19.604 18.0463 19.7674 18.0463C19.9581 18.0463 20.1896 18.0463 20.462 18.0463C20.7344 18.0327 21.0068 18.019 21.2792 18.0054C21.5515 17.9918 21.8444 17.9782 22.1576 17.9646C22.3483 18.9179 22.5185 19.8372 22.6683 20.7224C22.8181 21.4987 22.9679 22.2954 23.1177 23.1126C23.2812 23.9297 23.4242 24.6243 23.5467 25.1963C23.6012 24.9239 23.6625 24.6107 23.7306 24.2566C23.7987 23.8889 23.8736 23.5075 23.9553 23.1126C24.037 22.7176 24.1119 22.3227 24.18 21.9277C24.2617 21.5191 24.3434 21.1174 24.4252 20.7224C24.6158 19.8372 24.8133 18.9247 25.0176 17.985L27.5099 17.6786C27.0468 19.7623 26.6383 21.737 26.2842 23.6029C26.1207 24.4064 25.9573 25.2235 25.7939 26.0543C25.6441 26.8714 25.5011 27.6613 25.3649 28.424C25.2287 29.173 25.1129 29.8744 25.0176 30.5281C24.9223 31.1682 24.8474 31.7062 24.7929 32.142C24.752 32.142 24.5886 32.176 24.3026 32.2441C24.0302 32.2986 23.7102 32.3667 23.3424 32.4484C22.9884 32.5301 22.6274 32.6119 22.2597 32.6936C21.9056 32.7753 21.6401 32.8502 21.463 32.9183C21.3813 31.8288 21.2928 30.7937 21.1974 29.8131C21.1566 29.391 21.1089 28.962 21.0544 28.5261C21.0136 28.0767 20.9659 27.6477 20.9114 27.2391C20.857 26.8306 20.8025 26.4492 20.748 26.0951C20.6935 25.741 20.6391 25.4346 20.5846 25.1759C20.5437 25.4346 20.4893 25.7342 20.4212 26.0747C20.3531 26.4152 20.285 26.7761 20.2169 27.1574C20.1488 27.5388 20.0807 27.9405 20.0126 28.3627C19.9445 28.7713 19.8696 29.1662 19.7879 29.5476C19.6108 30.46 19.4202 31.4134 19.2159 32.4076L16.2333 33.1021ZM27.1656 33.0204L29.8418 18.4957L36.2972 17.9441C36.2019 18.2438 36.1201 18.5502 36.0521 18.8634C35.984 19.1222 35.9159 19.3946 35.8478 19.6806C35.7933 19.953 35.7456 20.1981 35.7048 20.416C35.5686 20.4296 35.3711 20.4432 35.1123 20.4569C34.8672 20.4569 34.6016 20.4637 34.3156 20.4773C34.0296 20.4773 33.7368 20.4773 33.4372 20.4773C33.1512 20.4773 32.8992 20.4773 32.6813 20.4773L31.9663 24.134C32.3885 24.1068 32.7835 24.0863 33.1512 24.0727C33.4508 24.0591 33.7572 24.0523 34.0705 24.0523C34.3837 24.0523 34.6152 24.0455 34.7651 24.0319C34.7106 24.4132 34.6561 24.7877 34.6016 25.1554C34.5608 25.5231 34.5063 25.8977 34.4382 26.279C34.302 26.2926 34.0773 26.3062 33.7641 26.3199C33.4644 26.3199 33.158 26.3267 32.8448 26.3403C32.4907 26.3539 32.1025 26.3675 31.6803 26.3811L30.9858 30.14L33.9683 29.6701L33.7641 31.999L27.1656 33.0204ZM36.4365 33.0817L37.9891 18.5774C38.6292 18.5502 39.2284 18.4889 39.7868 18.3936C40.3588 18.2846 40.924 18.2097 41.4824 18.1689C41.4824 18.1825 41.462 18.3255 41.4211 18.5979C41.3802 18.8566 41.3258 19.2039 41.2577 19.6397C41.1896 20.0619 41.1147 20.5454 41.033 21.0901C40.9512 21.6213 40.8287 22.3567 40.6652 23.2964C40.5154 24.2361 40.3111 25.5368 40.0524 27.1983H40.3588C40.7129 25.9453 41.0057 24.9239 41.2372 24.134C41.4688 23.3305 41.6526 22.6836 41.7888 22.1933C41.9386 21.6894 42.0748 21.2059 42.1974 20.7429C42.3336 20.2798 42.4561 19.8508 42.5651 19.4559C42.6877 19.0609 42.783 18.7272 42.8511 18.4549H43.035C43.2801 18.4549 43.5252 18.4412 43.7704 18.414C44.0291 18.3868 44.2675 18.3595 44.4854 18.3323C44.7169 18.2914 44.9552 18.2438 45.2004 18.1893C45.1731 18.3119 45.1391 18.5638 45.0982 18.9451C45.071 19.3265 45.0301 19.7895 44.9757 20.3343C44.9212 20.8654 44.8667 21.4579 44.8122 22.1116C44.7578 22.7517 44.7033 23.385 44.6488 24.0114C44.5943 24.6243 44.5399 25.2099 44.4854 25.7683C44.4445 26.3267 44.4037 26.8033 44.3628 27.1983H44.7305L46.6712 18.414C47.1343 18.3459 47.5905 18.2846 48.04 18.2301C48.4349 18.1757 48.8435 18.1212 49.2657 18.0667C49.6879 18.0122 50.0624 17.951 50.3892 17.8829C50.185 18.4549 49.9807 19.095 49.7764 19.8031C49.5721 20.4977 49.361 21.2331 49.1431 22.0094C48.9252 22.7857 48.7141 23.5688 48.5098 24.3587C48.3191 25.1486 48.1285 25.9113 47.9378 26.6467C47.502 28.39 47.0798 30.1809 46.6712 32.0194L42.0544 32.7957L42.9532 24.9103H42.7081L40.6857 32.3259L36.4365 33.0817ZM53.6289 28.1584C53.234 28.1584 52.839 28.172 52.4441 28.1993C52.0491 28.2265 51.6542 28.2538 51.2592 28.281C51.6814 26.6059 52.09 24.9375 52.4849 23.276C52.8935 21.6145 53.3157 19.9461 53.7515 18.271C54.0103 18.2301 54.3031 18.1893 54.6299 18.1484C54.9704 18.1076 55.3109 18.0599 55.6514 18.0054C55.9918 17.951 56.3187 17.9033 56.6319 17.8624C56.9588 17.8216 57.2312 17.7807 57.4491 17.7399C56.7136 19.4559 56.0395 21.1855 55.4266 22.9287C54.8274 24.6583 54.2282 26.4016 53.6289 28.1584ZM53.8332 31.3657C53.8332 31.6245 53.7719 31.8832 53.6494 32.142C53.5404 32.4008 53.377 32.6323 53.1591 32.8366C52.9412 33.0272 52.6688 33.177 52.3419 33.286C52.0151 33.4086 51.6405 33.4699 51.2184 33.4699C50.9323 33.4699 50.6736 33.4154 50.4421 33.3064C50.2105 33.1975 50.0199 33.0545 49.8701 32.8774C49.7339 32.6868 49.6249 32.4757 49.5432 32.2441C49.4615 32.0126 49.4206 31.7811 49.4206 31.5496C49.4206 31.2908 49.4615 31.0457 49.5432 30.8141C49.6249 30.569 49.7475 30.3579 49.9109 30.1809C50.088 29.9902 50.2991 29.8336 50.5442 29.711C50.803 29.5884 51.1094 29.5271 51.4635 29.5271C52.2534 29.5271 52.8458 29.7178 53.2408 30.0991C53.6357 30.4669 53.8332 30.889 53.8332 31.3657Z" fill="#005B14"/>
    <defs>
        <filter id="filter0_b_159_83" x="-1.08536" y="-1.08536" width="72.1707" height="64.7283" filterUnits="userSpaceOnUse" color-interpolation-filters="sRGB">
            <feFlood flood-opacity="0" result="BackgroundImageFix"/>
            <feGaussianBlur in="BackgroundImageFix" stdDeviation="0.542682"/>
            <feComposite in2="SourceAlpha" operator="in" result="effect1_backgroundBlur_159_83"/>
            <feBlend mode="normal" in="SourceGraphic" in2="effect1_backgroundBlur_159_83" result="shape"/>
        </filter>
        <radialGradient id="paint0_radial_159_83" cx="0" cy="0" r="1" gradientUnits="userSpaceOnUse" gradientTransform="translate(35 25) rotate(90) scale(41.5 48.0165)">
            <stop stop-color="#FCFF51"/>
            <stop offset="1" stop-color="#42FF00"/>
        </radialGradient>
    </defs>
</svg>
