<svg width="527" height="87" viewBox="0 0 527 87" fill="none" xmlns="http://www.w3.org/2000/svg">
    <path opacity="0.95" d="M18.0121 0L523.512 5L526.512 86.5L0.512085 80L18.0121 0Z" fill="#0A0808"/>
    <path d="M57.9781 46.686C57.9781 49.0007 57.5234 51.1087 56.6141 53.01C55.7461 54.87 54.5474 56.482 53.0181 57.846C51.5301 59.21 49.7528 60.264 47.6861 61.008C45.6608 61.752 43.4701 62.124 41.1141 62.124C39.4608 62.124 37.8074 61.69 36.1541 60.822C34.5008 59.9127 32.9094 58.4867 31.3801 56.544L35.9681 47.554C36.2574 48.0913 36.6914 48.6493 37.2701 49.228C37.8488 49.7653 38.4894 50.2407 39.1921 50.654C39.9361 51.0673 40.6594 51.4187 41.3621 51.708C42.1061 51.956 42.7674 52.08 43.3461 52.08C43.8421 52.08 44.3588 51.9973 44.8961 51.832C45.4334 51.6667 45.9294 51.4187 46.3841 51.088C46.8388 50.7573 47.1901 50.3853 47.4381 49.972C47.7274 49.5173 47.8721 49.0007 47.8721 48.422C47.8721 47.43 47.5414 46.5207 46.8801 45.694C46.2601 44.826 45.4748 44.02 44.5241 43.276C43.5734 42.4907 42.5401 41.7053 41.4241 40.92C40.3081 40.1347 39.2748 39.308 38.3241 38.44C37.4148 37.572 36.6294 36.6007 35.9681 35.526C35.3068 34.4513 34.9761 33.2527 34.9761 31.93C34.9761 29.7807 35.6168 27.776 36.8981 25.916C38.1794 24.056 39.7708 22.4647 41.6721 21.142C43.6148 19.778 45.7228 18.7033 47.9961 17.918C50.2694 17.1327 52.4188 16.74 54.4441 16.74C55.5601 16.74 56.6141 16.8847 57.6061 17.174C58.5981 17.422 59.4454 17.856 60.1481 18.476C60.8921 19.0547 61.4708 19.7987 61.8841 20.708C62.3388 21.6173 62.5661 22.754 62.5661 24.118C62.5661 24.6967 62.5041 25.2753 62.3801 25.854C62.2974 26.4327 62.2148 27.0527 62.1321 27.714L53.1421 30.318C53.2248 29.9873 53.2868 29.6567 53.3281 29.326C53.4108 28.9953 53.4521 28.6647 53.4521 28.334C53.4521 27.094 53.2248 26.2053 52.7701 25.668C52.3568 25.0893 51.7988 24.8 51.0961 24.8C50.7654 24.8 50.3521 24.924 49.8561 25.172C49.4014 25.42 48.9261 25.7507 48.4301 26.164C47.9754 26.536 47.5828 26.9907 47.2521 27.528C46.9214 28.0653 46.7561 28.644 46.7561 29.264C46.7561 30.256 47.0248 31.0827 47.5621 31.744C48.1408 32.4053 48.8434 33.0253 49.6701 33.604C50.4968 34.1827 51.3854 34.782 52.3361 35.402C53.3281 35.9807 54.2374 36.7453 55.0641 37.696C55.8908 38.6467 56.5728 39.8453 57.1101 41.292C57.6888 42.6973 57.9781 44.4953 57.9781 46.686ZM57.6487 62.062L65.7707 17.98L85.3627 16.306C85.0734 17.2153 84.8254 18.1453 84.6187 19.096C84.412 19.8813 84.2054 20.708 83.9987 21.576C83.8334 22.4027 83.6887 23.1467 83.5647 23.808C83.1514 23.8493 82.552 23.8907 81.7667 23.932C81.0227 23.932 80.2167 23.9527 79.3487 23.994C78.4807 23.994 77.592 23.994 76.6827 23.994C75.8147 23.994 75.05 23.994 74.3887 23.994L72.2187 35.092C73.5 35.0093 74.6987 34.9473 75.8147 34.906C76.724 34.8647 77.654 34.844 78.6047 34.844C79.5554 34.844 80.258 34.8233 80.7127 34.782C80.5474 35.9393 80.382 37.076 80.2167 38.192C80.0927 39.308 79.9274 40.4447 79.7207 41.602C79.3074 41.6433 78.6254 41.6847 77.6747 41.726C76.7654 41.726 75.8354 41.7467 74.8847 41.788C73.81 41.8293 72.632 41.8707 71.3507 41.912L69.2427 53.32L78.2947 51.894L77.6747 58.962L57.6487 62.062ZM78.5936 62.31C79.8336 56.358 81.0116 50.592 82.1276 45.012C82.5409 42.6147 82.9749 40.1347 83.4296 37.572C83.9256 35.0093 84.3802 32.488 84.7936 30.008C85.2069 27.4867 85.5789 25.0893 85.9096 22.816C86.2402 20.5013 86.4882 18.414 86.6536 16.554C87.1909 16.5953 87.6456 16.616 88.0176 16.616C88.3896 16.616 88.8236 16.616 89.3196 16.616C89.8982 16.616 90.6009 16.616 91.4276 16.616C92.2542 16.5747 93.0809 16.5333 93.9076 16.492C94.7342 16.4507 95.6229 16.4093 96.5736 16.368C97.1522 19.2613 97.6689 22.0513 98.1236 24.738C98.5782 27.094 99.0329 29.512 99.4876 31.992C99.9836 34.472 100.418 36.58 100.79 38.316C100.955 37.4893 101.141 36.5387 101.348 35.464C101.554 34.348 101.782 33.1907 102.03 31.992C102.278 30.7933 102.505 29.5947 102.712 28.396C102.96 27.156 103.208 25.9367 103.456 24.738C104.034 22.0513 104.634 19.282 105.254 16.43L112.818 15.5C111.412 21.824 110.172 27.8173 109.098 33.48C108.602 35.9187 108.106 38.3987 107.61 40.92C107.155 43.4 106.721 45.7973 106.308 48.112C105.894 50.3853 105.543 52.514 105.254 54.498C104.964 56.4407 104.737 58.0733 104.572 59.396C104.448 59.396 103.952 59.4993 103.084 59.706C102.257 59.8713 101.286 60.078 100.17 60.326C99.0949 60.574 97.9996 60.822 96.8836 61.07C95.8089 61.318 95.0029 61.5453 94.4656 61.752C94.2176 58.4453 93.9489 55.304 93.6596 52.328C93.5356 51.0467 93.3909 49.7447 93.2256 48.422C93.1016 47.058 92.9569 45.756 92.7916 44.516C92.6262 43.276 92.4609 42.1187 92.2956 41.044C92.1302 39.9693 91.9649 39.0393 91.7996 38.254C91.6756 39.0393 91.5102 39.9487 91.3036 40.982C91.0969 42.0153 90.8902 43.1107 90.6836 44.268C90.4769 45.4253 90.2702 46.6447 90.0636 47.926C89.8569 49.166 89.6296 50.3647 89.3816 51.522C88.8442 54.2913 88.2656 57.1847 87.6456 60.202L78.5936 62.31ZM137.875 30.318C137.875 32.4673 137.565 34.7613 136.945 37.2C136.325 39.5973 135.457 41.9947 134.341 44.392C133.225 46.748 131.84 49.0213 130.187 51.212C128.575 53.3613 126.735 55.2627 124.669 56.916C122.602 58.528 120.329 59.83 117.849 60.822C115.41 61.814 112.806 62.31 110.037 62.31C109.458 62.31 108.879 62.2687 108.301 62.186C107.722 62.1447 107.143 62.0827 106.565 62C107.681 56.296 108.776 50.7367 109.851 45.322C110.264 43.0487 110.698 40.6927 111.153 38.254C111.607 35.774 112.041 33.3353 112.455 30.938C112.868 28.5407 113.261 26.2467 113.633 24.056C114.046 21.8653 114.377 19.8813 114.625 18.104C116.402 17.7733 118.2 17.4633 120.019 17.174C121.837 16.8847 123.697 16.74 125.599 16.74C127.831 16.74 129.711 17.0913 131.241 17.794C132.811 18.4967 134.072 19.468 135.023 20.708C136.015 21.948 136.738 23.3947 137.193 25.048C137.647 26.7013 137.875 28.458 137.875 30.318ZM123.243 25.482C122.788 27.9207 122.313 30.256 121.817 32.488C121.321 34.72 120.825 36.9727 120.329 39.246C119.833 41.5193 119.337 43.896 118.841 46.376C118.345 48.856 117.869 51.5633 117.415 54.498C118.407 53.8367 119.357 52.948 120.267 51.832C121.217 50.6747 122.106 49.352 122.933 47.864C123.759 46.376 124.503 44.8053 125.165 43.152C125.867 41.4987 126.467 39.8867 126.963 38.316C127.459 36.7453 127.831 35.278 128.079 33.914C128.368 32.55 128.513 31.372 128.513 30.38C128.513 28.8507 128.079 27.652 127.211 26.784C126.384 25.916 125.061 25.482 123.243 25.482ZM173.259 46.686C173.259 49.0007 172.805 51.1087 171.895 53.01C171.027 54.87 169.829 56.482 168.299 57.846C166.811 59.21 165.034 60.264 162.967 61.008C160.942 61.752 158.751 62.124 156.395 62.124C154.742 62.124 153.089 61.69 151.435 60.822C149.782 59.9127 148.191 58.4867 146.661 56.544L151.249 47.554C151.539 48.0913 151.973 48.6493 152.551 49.228C153.13 49.7653 153.771 50.2407 154.473 50.654C155.217 51.0673 155.941 51.4187 156.643 51.708C157.387 51.956 158.049 52.08 158.627 52.08C159.123 52.08 159.64 51.9973 160.177 51.832C160.715 51.6667 161.211 51.4187 161.665 51.088C162.12 50.7573 162.471 50.3853 162.719 49.972C163.009 49.5173 163.153 49.0007 163.153 48.422C163.153 47.43 162.823 46.5207 162.161 45.694C161.541 44.826 160.756 44.02 159.805 43.276C158.855 42.4907 157.821 41.7053 156.705 40.92C155.589 40.1347 154.556 39.308 153.605 38.44C152.696 37.572 151.911 36.6007 151.249 35.526C150.588 34.4513 150.257 33.2527 150.257 31.93C150.257 29.7807 150.898 27.776 152.179 25.916C153.461 24.056 155.052 22.4647 156.953 21.142C158.896 19.778 161.004 18.7033 163.277 17.918C165.551 17.1327 167.7 16.74 169.725 16.74C170.841 16.74 171.895 16.8847 172.887 17.174C173.879 17.422 174.727 17.856 175.429 18.476C176.173 19.0547 176.752 19.7987 177.165 20.708C177.62 21.6173 177.847 22.754 177.847 24.118C177.847 24.6967 177.785 25.2753 177.661 25.854C177.579 26.4327 177.496 27.0527 177.413 27.714L168.423 30.318C168.506 29.9873 168.568 29.6567 168.609 29.326C168.692 28.9953 168.733 28.6647 168.733 28.334C168.733 27.094 168.506 26.2053 168.051 25.668C167.638 25.0893 167.08 24.8 166.377 24.8C166.047 24.8 165.633 24.924 165.137 25.172C164.683 25.42 164.207 25.7507 163.711 26.164C163.257 26.536 162.864 26.9907 162.533 27.528C162.203 28.0653 162.037 28.644 162.037 29.264C162.037 30.256 162.306 31.0827 162.843 31.744C163.422 32.4053 164.125 33.0253 164.951 33.604C165.778 34.1827 166.667 34.782 167.617 35.402C168.609 35.9807 169.519 36.7453 170.345 37.696C171.172 38.6467 171.854 39.8453 172.391 41.292C172.97 42.6973 173.259 44.4953 173.259 46.686ZM172.93 62.062L181.052 17.98L200.644 16.306C200.355 17.2153 200.107 18.1453 199.9 19.096C199.693 19.8813 199.487 20.708 199.28 21.576C199.115 22.4027 198.97 23.1467 198.846 23.808C198.433 23.8493 197.833 23.8907 197.048 23.932C196.304 23.932 195.498 23.9527 194.63 23.994C193.762 23.994 192.873 23.994 191.964 23.994C191.096 23.994 190.331 23.994 189.67 23.994L187.5 35.092C188.781 35.0093 189.98 34.9473 191.096 34.906C192.005 34.8647 192.935 34.844 193.886 34.844C194.837 34.844 195.539 34.8233 195.994 34.782C195.829 35.9393 195.663 37.076 195.498 38.192C195.374 39.308 195.209 40.4447 195.002 41.602C194.589 41.6433 193.907 41.6847 192.956 41.726C192.047 41.726 191.117 41.7467 190.166 41.788C189.091 41.8293 187.913 41.8707 186.632 41.912L184.524 53.32L193.576 51.894L192.956 58.962L172.93 62.062ZM220.039 48.67C219.047 50.9433 217.931 52.9273 216.691 54.622C215.492 56.2753 214.211 57.6807 212.847 58.838C211.524 59.954 210.181 60.7807 208.817 61.318C207.453 61.8553 206.13 62.124 204.849 62.124C203.567 62.124 202.389 61.8347 201.315 61.256C200.281 60.6773 199.372 59.8093 198.587 58.652C197.801 57.4947 197.161 56.0687 196.665 54.374C196.21 52.6793 195.983 50.6953 195.983 48.422C195.983 44.5367 196.52 40.7133 197.595 36.952C198.669 33.1493 200.178 29.7393 202.121 26.722C204.063 23.7047 206.357 21.2867 209.003 19.468C211.689 17.608 214.645 16.678 217.869 16.678C218.861 16.678 219.811 16.8847 220.721 17.298C221.63 17.7113 222.415 18.29 223.077 19.034C223.738 19.778 224.255 20.6873 224.627 21.762C225.04 22.8367 225.247 24.0353 225.247 25.358C225.247 25.606 225.247 25.8747 225.247 26.164C225.247 26.412 225.226 26.6807 225.185 26.97L217.063 29.14C216.567 28.1067 215.988 27.59 215.327 27.59C214.665 27.59 213.963 27.9827 213.219 28.768C212.516 29.512 211.813 30.504 211.111 31.744C210.408 32.9427 209.726 34.3067 209.065 35.836C208.403 37.324 207.825 38.8327 207.329 40.362C206.833 41.8913 206.419 43.3587 206.089 44.764C205.799 46.128 205.655 47.244 205.655 48.112C205.655 49.4347 205.82 50.3647 206.151 50.902C206.523 51.4393 206.998 51.708 207.577 51.708C208.031 51.708 208.548 51.5427 209.127 51.212C209.705 50.84 210.243 50.3853 210.739 49.848C211.235 49.2693 211.689 48.6287 212.103 47.926C212.516 47.2233 212.805 46.5207 212.971 45.818L220.039 48.67ZM219.485 62.062C220.601 56.5647 221.675 51.1913 222.709 45.942C223.081 43.71 223.494 41.3953 223.949 38.998C224.403 36.5593 224.817 34.162 225.189 31.806C225.602 29.4087 225.974 27.1147 226.305 24.924C226.677 22.692 226.966 20.6667 227.173 18.848C229.529 18.104 232.071 17.5667 234.799 17.236C237.527 16.864 240.234 16.678 242.921 16.678C244.533 16.678 245.855 16.864 246.889 17.236C247.963 17.608 248.79 18.1453 249.369 18.848C249.989 19.5093 250.423 20.2947 250.671 21.204C250.919 22.1133 251.043 23.126 251.043 24.242C251.043 25.8953 250.753 27.528 250.175 29.14C249.596 30.7107 248.811 32.2193 247.819 33.666C246.868 35.0713 245.752 36.3733 244.471 37.572C243.231 38.7293 241.887 39.68 240.441 40.424C241.185 42.0773 241.97 43.896 242.797 45.88C243.665 47.8227 244.471 49.6827 245.215 51.46C246.041 53.5267 246.889 55.5933 247.757 57.66L238.147 61.008C237.32 58.3627 236.576 55.8827 235.915 53.568C235.625 52.6173 235.336 51.646 235.047 50.654C234.757 49.6207 234.489 48.6493 234.241 47.74C233.993 46.8307 233.786 46.0247 233.621 45.322C233.455 44.578 233.352 43.9787 233.311 43.524L232.505 43.772C232.257 45.0947 231.947 46.6447 231.575 48.422C231.244 50.1993 230.934 51.9147 230.645 53.568C230.273 55.5107 229.901 57.474 229.529 59.458L219.485 62.062ZM234.055 35.154C234.84 35.0713 235.791 34.7407 236.907 34.162C238.064 33.5833 239.159 32.9013 240.193 32.116C241.226 31.2893 242.115 30.442 242.859 29.574C243.603 28.706 243.975 27.9413 243.975 27.28C243.975 26.8253 243.83 26.474 243.541 26.226C243.251 25.9367 242.838 25.73 242.301 25.606C241.805 25.4407 241.247 25.3373 240.627 25.296C240.007 25.2547 239.366 25.234 238.705 25.234C238.25 25.234 237.775 25.2547 237.279 25.296C236.824 25.296 236.411 25.296 236.039 25.296L234.055 35.154ZM247.282 62.062L255.404 17.98L274.996 16.306C274.706 17.2153 274.458 18.1453 274.252 19.096C274.045 19.8813 273.838 20.708 273.632 21.576C273.466 22.4027 273.322 23.1467 273.198 23.808C272.784 23.8493 272.185 23.8907 271.4 23.932C270.656 23.932 269.85 23.9527 268.982 23.994C268.114 23.994 267.225 23.994 266.316 23.994C265.448 23.994 264.683 23.994 264.022 23.994L261.852 35.092C263.133 35.0093 264.332 34.9473 265.448 34.906C266.357 34.8647 267.287 34.844 268.238 34.844C269.188 34.844 269.891 34.8233 270.346 34.782C270.18 35.9393 270.015 37.076 269.85 38.192C269.726 39.308 269.56 40.4447 269.354 41.602C268.94 41.6433 268.258 41.6847 267.308 41.726C266.398 41.726 265.468 41.7467 264.518 41.788C263.443 41.8293 262.265 41.8707 260.984 41.912L258.876 53.32L267.928 51.894L267.308 58.962L247.282 62.062ZM273.496 62.062C274.447 57.5153 275.356 53.0307 276.224 48.608C276.596 46.748 276.968 44.8053 277.34 42.78C277.712 40.7547 278.064 38.7707 278.394 36.828C278.766 34.844 279.076 32.9427 279.324 31.124C279.614 29.264 279.862 27.5693 280.068 26.04C279.118 25.916 278.146 25.8747 277.154 25.916C276.204 25.9573 275.253 25.8333 274.302 25.544C274.344 24.8827 274.364 24.118 274.364 23.25C274.364 22.382 274.385 21.514 274.426 20.646C274.468 19.6953 274.509 18.6827 274.55 17.608C275.625 17.6907 276.7 17.7527 277.774 17.794C278.849 17.8353 279.924 17.856 280.998 17.856C283.106 17.856 285.132 17.8147 287.074 17.732C289.058 17.608 290.877 17.484 292.53 17.36C294.225 17.1947 295.878 17.0087 297.49 16.802L296.808 20.15C296.602 21.1007 296.395 22.072 296.188 23.064C296.023 24.056 295.858 24.9033 295.692 25.606C294.783 25.854 293.853 26.04 292.902 26.164C291.993 26.2467 291.084 26.3707 290.174 26.536C289.885 27.9413 289.575 29.512 289.244 31.248C288.914 32.9427 288.583 34.72 288.252 36.58C287.963 38.3987 287.674 40.2587 287.384 42.16C287.095 44.0613 286.806 45.88 286.516 47.616C285.855 51.708 285.235 55.9447 284.656 60.326L273.496 62.062ZM306.147 62.558C306.684 56.7713 307.18 51.088 307.635 45.508C307.841 43.1933 308.027 40.7547 308.193 38.192C308.399 35.6293 308.565 33.108 308.689 30.628C308.854 28.1067 308.978 25.6887 309.061 23.374C309.143 21.018 309.205 18.8687 309.247 16.926C310.239 16.926 311.293 16.9053 312.409 16.864C313.566 16.8227 314.599 16.7813 315.509 16.74C316.459 16.6987 317.265 16.6573 317.927 16.616C318.588 16.5333 318.919 16.492 318.919 16.492C318.464 21.2867 318.071 25.234 317.741 28.334C317.41 31.3927 317.141 33.8933 316.935 35.836C316.769 37.7373 316.604 39.5767 316.439 41.354C316.315 43.1313 316.17 44.7847 316.005 46.314C315.839 47.8433 315.695 49.1453 315.571 50.22H316.687L323.631 17.236C324.747 17.1947 325.883 17.1327 327.041 17.05C328.074 16.9673 329.149 16.9053 330.265 16.864C331.422 16.8227 332.476 16.74 333.427 16.616C332.848 18.4347 332.249 20.4393 331.629 22.63C331.05 24.8207 330.43 27.094 329.769 29.45C329.149 31.806 328.529 34.2033 327.909 36.642C327.33 39.0807 326.751 41.4367 326.173 43.71C324.85 49.042 323.527 54.5187 322.205 60.14L306.147 62.558ZM348.797 60.76C347.764 60.9253 346.627 61.1113 345.387 61.318C344.147 61.5247 343.031 61.7107 342.039 61.876C342.204 60.512 342.37 59.1687 342.535 57.846C342.659 56.6887 342.762 55.5313 342.845 54.374C342.969 53.2167 343.072 52.2247 343.155 51.398H337.761L335.281 60.326C334.372 60.45 333.297 60.5947 332.057 60.76C330.817 60.884 329.66 61.008 328.585 61.132C327.262 61.2973 325.96 61.4627 324.679 61.628C326.332 56.1307 327.965 50.716 329.577 45.384C330.238 43.152 330.92 40.8167 331.623 38.378C332.367 35.9393 333.09 33.5213 333.793 31.124C334.537 28.6853 335.24 26.35 335.901 24.118C336.562 21.886 337.141 19.84 337.637 17.98C340.448 17.7733 343.3 17.5253 346.193 17.236C349.128 16.9467 351.98 16.554 354.749 16.058C354.625 17.3807 354.48 19.034 354.315 21.018C354.191 22.9607 354.067 25.0893 353.943 27.404C353.819 29.7187 353.695 32.1367 353.571 34.658C353.447 37.1793 353.323 39.6593 353.199 42.098C352.992 47.802 352.765 53.8573 352.517 60.264C351.277 60.4707 350.037 60.636 348.797 60.76ZM339.249 45.198C339.414 45.198 339.704 45.198 340.117 45.198C340.572 45.1567 341.026 45.136 341.481 45.136C341.977 45.0947 342.432 45.074 342.845 45.074C343.258 45.0327 343.548 44.9913 343.713 44.95C343.713 44.702 343.734 44.2887 343.775 43.71C343.858 43.09 343.92 42.408 343.961 41.664C344.044 40.8787 344.126 40.0313 344.209 39.122C344.292 38.2127 344.374 37.324 344.457 36.456C344.622 34.348 344.829 32.0747 345.077 29.636L345.449 24.242L344.519 24.304L343.093 29.636L339.249 45.198ZM369.915 60.016C368.634 60.016 367.27 60.0573 365.823 60.14C364.418 60.2227 362.992 60.3467 361.545 60.512C360.098 60.6773 358.672 60.9047 357.267 61.194C355.903 61.442 354.663 61.752 353.547 62.124C353.795 60.264 354.084 58.1973 354.415 55.924C354.746 53.6507 355.118 51.2947 355.531 48.856C355.986 46.4173 356.42 43.958 356.833 41.478C357.288 38.998 357.742 36.6213 358.197 34.348C359.23 28.9333 360.326 23.4153 361.483 17.794L372.333 16.368C371.217 21.1627 370.142 25.8333 369.109 30.38C368.654 32.3227 368.2 34.348 367.745 36.456C367.29 38.5227 366.856 40.548 366.443 42.532C366.03 44.516 365.658 46.438 365.327 48.298C364.996 50.158 364.728 51.8113 364.521 53.258C365.554 53.1753 366.65 53.134 367.807 53.134C369.006 53.0927 370.06 53.072 370.969 53.072C371.01 53.8573 371.072 54.6427 371.155 55.428C371.238 56.172 371.32 56.854 371.403 57.474C371.527 58.094 371.61 58.652 371.651 59.148C371.734 59.6027 371.796 59.9127 371.837 60.078C371.506 60.078 371.176 60.078 370.845 60.078C370.556 60.0367 370.246 60.016 369.915 60.016ZM372.008 62.062L380.13 17.98L399.722 16.306C399.433 17.2153 399.185 18.1453 398.978 19.096C398.771 19.8813 398.565 20.708 398.358 21.576C398.193 22.4027 398.048 23.1467 397.924 23.808C397.511 23.8493 396.911 23.8907 396.126 23.932C395.382 23.932 394.576 23.9527 393.708 23.994C392.84 23.994 391.951 23.994 391.042 23.994C390.174 23.994 389.409 23.994 388.748 23.994L386.578 35.092C387.859 35.0093 389.058 34.9473 390.174 34.906C391.083 34.8647 392.013 34.844 392.964 34.844C393.915 34.844 394.617 34.8233 395.072 34.782C394.907 35.9393 394.741 37.076 394.576 38.192C394.452 39.308 394.287 40.4447 394.08 41.602C393.667 41.6433 392.985 41.6847 392.034 41.726C391.125 41.726 390.195 41.7467 389.244 41.788C388.169 41.8293 386.991 41.8707 385.71 41.912L383.602 53.32L392.654 51.894L392.034 58.962L372.008 62.062ZM392.953 62.31C394.193 56.358 395.371 50.592 396.487 45.012C396.9 42.6147 397.334 40.1347 397.789 37.572C398.285 35.0093 398.74 32.488 399.153 30.008C399.566 27.4867 399.938 25.0893 400.269 22.816C400.6 20.5013 400.848 18.414 401.013 16.554C401.55 16.5953 402.005 16.616 402.377 16.616C402.749 16.616 403.183 16.616 403.679 16.616C404.258 16.616 404.96 16.616 405.787 16.616C406.614 16.5747 407.44 16.5333 408.267 16.492C409.094 16.4507 409.982 16.4093 410.933 16.368C411.512 19.2613 412.028 22.0513 412.483 24.738C412.938 27.094 413.392 29.512 413.847 31.992C414.343 34.472 414.777 36.58 415.149 38.316C415.314 37.4893 415.5 36.5387 415.707 35.464C415.914 34.348 416.141 33.1907 416.389 31.992C416.637 30.7933 416.864 29.5947 417.071 28.396C417.319 27.156 417.567 25.9367 417.815 24.738C418.394 22.0513 418.993 19.282 419.613 16.43L427.177 15.5C425.772 21.824 424.532 27.8173 423.457 33.48C422.961 35.9187 422.465 38.3987 421.969 40.92C421.514 43.4 421.08 45.7973 420.667 48.112C420.254 50.3853 419.902 52.514 419.613 54.498C419.324 56.4407 419.096 58.0733 418.931 59.396C418.807 59.396 418.311 59.4993 417.443 59.706C416.616 59.8713 415.645 60.078 414.529 60.326C413.454 60.574 412.359 60.822 411.243 61.07C410.168 61.318 409.362 61.5453 408.825 61.752C408.577 58.4453 408.308 55.304 408.019 52.328C407.895 51.0467 407.75 49.7447 407.585 48.422C407.461 47.058 407.316 45.756 407.151 44.516C406.986 43.276 406.82 42.1187 406.655 41.044C406.49 39.9693 406.324 39.0393 406.159 38.254C406.035 39.0393 405.87 39.9487 405.663 40.982C405.456 42.0153 405.25 43.1107 405.043 44.268C404.836 45.4253 404.63 46.6447 404.423 47.926C404.216 49.166 403.989 50.3647 403.741 51.522C403.204 54.2913 402.625 57.1847 402.005 60.202L392.953 62.31ZM426.256 62.062C427.207 57.5153 428.116 53.0307 428.984 48.608C429.356 46.748 429.728 44.8053 430.1 42.78C430.472 40.7547 430.823 38.7707 431.154 36.828C431.526 34.844 431.836 32.9427 432.084 31.124C432.373 29.264 432.621 27.5693 432.828 26.04C431.877 25.916 430.906 25.8747 429.914 25.916C428.963 25.9573 428.013 25.8333 427.062 25.544C427.103 24.8827 427.124 24.118 427.124 23.25C427.124 22.382 427.145 21.514 427.186 20.646C427.227 19.6953 427.269 18.6827 427.31 17.608C428.385 17.6907 429.459 17.7527 430.534 17.794C431.609 17.8353 432.683 17.856 433.758 17.856C435.866 17.856 437.891 17.8147 439.834 17.732C441.818 17.608 443.637 17.484 445.29 17.36C446.985 17.1947 448.638 17.0087 450.25 16.802L449.568 20.15C449.361 21.1007 449.155 22.072 448.948 23.064C448.783 24.056 448.617 24.9033 448.452 25.606C447.543 25.854 446.613 26.04 445.662 26.164C444.753 26.2467 443.843 26.3707 442.934 26.536C442.645 27.9413 442.335 29.512 442.004 31.248C441.673 32.9427 441.343 34.72 441.012 36.58C440.723 38.3987 440.433 40.2587 440.144 42.16C439.855 44.0613 439.565 45.88 439.276 47.616C438.615 51.708 437.995 55.9447 437.416 60.326L426.256 62.062ZM453.679 60.76C453.307 60.76 452.563 60.822 451.447 60.946C450.372 61.0287 449.256 61.1527 448.099 61.318C446.942 61.442 445.888 61.566 444.937 61.69C444.028 61.814 443.532 61.8967 443.449 61.938C443.862 60.1607 444.276 58.1973 444.689 56.048C445.144 53.8573 445.598 51.584 446.053 49.228C446.508 46.8307 446.942 44.4127 447.355 41.974C447.768 39.5353 448.161 37.1793 448.533 34.906C449.401 29.6153 450.269 24.18 451.137 18.6L460.809 17.05C459.858 22.5887 458.928 28.024 458.019 33.356C457.647 35.6293 457.254 37.9853 456.841 40.424C456.469 42.8627 456.076 45.2807 455.663 47.678C455.291 50.0753 454.94 52.4107 454.609 54.684C454.278 56.916 453.968 58.9413 453.679 60.76ZM455.982 62.31C457.222 56.358 458.4 50.592 459.516 45.012C459.93 42.6147 460.364 40.1347 460.818 37.572C461.314 35.0093 461.769 32.488 462.182 30.008C462.596 27.4867 462.968 25.0893 463.298 22.816C463.629 20.5013 463.877 18.414 464.042 16.554C464.58 16.5953 465.034 16.616 465.406 16.616C465.778 16.616 466.212 16.616 466.708 16.616C467.287 16.616 467.99 16.616 468.816 16.616C469.643 16.5747 470.47 16.5333 471.296 16.492C472.123 16.4507 473.012 16.4093 473.962 16.368C474.541 19.2613 475.058 22.0513 475.512 24.738C475.967 27.094 476.422 29.512 476.876 31.992C477.372 34.472 477.806 36.58 478.178 38.316C478.344 37.4893 478.53 36.5387 478.736 35.464C478.943 34.348 479.17 33.1907 479.418 31.992C479.666 30.7933 479.894 29.5947 480.1 28.396C480.348 27.156 480.596 25.9367 480.844 24.738C481.423 22.0513 482.022 19.282 482.642 16.43L490.206 15.5C488.801 21.824 487.561 27.8173 486.486 33.48C485.99 35.9187 485.494 38.3987 484.998 40.92C484.544 43.4 484.11 45.7973 483.696 48.112C483.283 50.3853 482.932 52.514 482.642 54.498C482.353 56.4407 482.126 58.0733 481.96 59.396C481.836 59.396 481.34 59.4993 480.472 59.706C479.646 59.8713 478.674 60.078 477.558 60.326C476.484 60.574 475.388 60.822 474.272 61.07C473.198 61.318 472.392 61.5453 471.854 61.752C471.606 58.4453 471.338 55.304 471.048 52.328C470.924 51.0467 470.78 49.7447 470.614 48.422C470.49 47.058 470.346 45.756 470.18 44.516C470.015 43.276 469.85 42.1187 469.684 41.044C469.519 39.9693 469.354 39.0393 469.188 38.254C469.064 39.0393 468.899 39.9487 468.692 40.982C468.486 42.0153 468.279 43.1107 468.072 44.268C467.866 45.4253 467.659 46.6447 467.452 47.926C467.246 49.166 467.018 50.3647 466.77 51.522C466.233 54.2913 465.654 57.1847 465.034 60.202L455.982 62.31ZM484.201 62.062L492.323 17.98L511.915 16.306C511.626 17.2153 511.378 18.1453 511.171 19.096C510.965 19.8813 510.758 20.708 510.551 21.576C510.386 22.4027 510.241 23.1467 510.117 23.808C509.704 23.8493 509.105 23.8907 508.319 23.932C507.575 23.932 506.769 23.9527 505.901 23.994C505.033 23.994 504.145 23.994 503.235 23.994C502.367 23.994 501.603 23.994 500.941 23.994L498.771 35.092C500.053 35.0093 501.251 34.9473 502.367 34.906C503.277 34.8647 504.207 34.844 505.157 34.844C506.108 34.844 506.811 34.8233 507.265 34.782C507.1 35.9393 506.935 37.076 506.769 38.192C506.645 39.308 506.48 40.4447 506.273 41.602C505.86 41.6433 505.178 41.6847 504.227 41.726C503.318 41.726 502.388 41.7467 501.437 41.788C500.363 41.8293 499.185 41.8707 497.903 41.912L495.795 53.32L504.847 51.894L504.227 58.962L484.201 62.062Z" fill="#1AECFD"/>
    <path d="M54.9781 52.686C54.9781 55.0007 54.5234 57.1087 53.6141 59.01C52.7461 60.87 51.5474 62.482 50.0181 63.846C48.5301 65.21 46.7528 66.264 44.6861 67.008C42.6608 67.752 40.4701 68.124 38.1141 68.124C36.4608 68.124 34.8074 67.69 33.1541 66.822C31.5008 65.9127 29.9094 64.4867 28.3801 62.544L32.9681 53.554C33.2574 54.0913 33.6914 54.6493 34.2701 55.228C34.8488 55.7653 35.4894 56.2407 36.1921 56.654C36.9361 57.0673 37.6594 57.4187 38.3621 57.708C39.1061 57.956 39.7674 58.08 40.3461 58.08C40.8421 58.08 41.3588 57.9973 41.8961 57.832C42.4334 57.6667 42.9294 57.4187 43.3841 57.088C43.8388 56.7573 44.1901 56.3853 44.4381 55.972C44.7274 55.5173 44.8721 55.0007 44.8721 54.422C44.8721 53.43 44.5414 52.5207 43.8801 51.694C43.2601 50.826 42.4748 50.02 41.5241 49.276C40.5734 48.4907 39.5401 47.7053 38.4241 46.92C37.3081 46.1347 36.2748 45.308 35.3241 44.44C34.4148 43.572 33.6294 42.6007 32.9681 41.526C32.3068 40.4513 31.9761 39.2527 31.9761 37.93C31.9761 35.7807 32.6168 33.776 33.8981 31.916C35.1794 30.056 36.7708 28.4647 38.6721 27.142C40.6148 25.778 42.7228 24.7033 44.9961 23.918C47.2694 23.1327 49.4188 22.74 51.4441 22.74C52.5601 22.74 53.6141 22.8847 54.6061 23.174C55.5981 23.422 56.4454 23.856 57.1481 24.476C57.8921 25.0547 58.4708 25.7987 58.8841 26.708C59.3388 27.6173 59.5661 28.754 59.5661 30.118C59.5661 30.6967 59.5041 31.2753 59.3801 31.854C59.2974 32.4327 59.2148 33.0527 59.1321 33.714L50.1421 36.318C50.2248 35.9873 50.2868 35.6567 50.3281 35.326C50.4108 34.9953 50.4521 34.6647 50.4521 34.334C50.4521 33.094 50.2248 32.2053 49.7701 31.668C49.3568 31.0893 48.7988 30.8 48.0961 30.8C47.7654 30.8 47.3521 30.924 46.8561 31.172C46.4014 31.42 45.9261 31.7507 45.4301 32.164C44.9754 32.536 44.5828 32.9907 44.2521 33.528C43.9214 34.0653 43.7561 34.644 43.7561 35.264C43.7561 36.256 44.0248 37.0827 44.5621 37.744C45.1408 38.4053 45.8434 39.0253 46.6701 39.604C47.4968 40.1827 48.3854 40.782 49.3361 41.402C50.3281 41.9807 51.2374 42.7453 52.0641 43.696C52.8908 44.6467 53.5728 45.8453 54.1101 47.292C54.6888 48.6973 54.9781 50.4953 54.9781 52.686ZM54.6487 68.062L62.7707 23.98L82.3627 22.306C82.0734 23.2153 81.8254 24.1453 81.6187 25.096C81.412 25.8813 81.2054 26.708 80.9987 27.576C80.8334 28.4027 80.6887 29.1467 80.5647 29.808C80.1514 29.8493 79.552 29.8907 78.7667 29.932C78.0227 29.932 77.2167 29.9527 76.3487 29.994C75.4807 29.994 74.592 29.994 73.6827 29.994C72.8147 29.994 72.05 29.994 71.3887 29.994L69.2187 41.092C70.5 41.0093 71.6987 40.9473 72.8147 40.906C73.724 40.8647 74.654 40.844 75.6047 40.844C76.5554 40.844 77.258 40.8233 77.7127 40.782C77.5474 41.9393 77.382 43.076 77.2167 44.192C77.0927 45.308 76.9274 46.4447 76.7207 47.602C76.3074 47.6433 75.6254 47.6847 74.6747 47.726C73.7654 47.726 72.8354 47.7467 71.8847 47.788C70.81 47.8293 69.632 47.8707 68.3507 47.912L66.2427 59.32L75.2947 57.894L74.6747 64.962L54.6487 68.062ZM75.5936 68.31C76.8336 62.358 78.0116 56.592 79.1276 51.012C79.5409 48.6147 79.9749 46.1347 80.4296 43.572C80.9256 41.0093 81.3802 38.488 81.7936 36.008C82.2069 33.4867 82.5789 31.0893 82.9096 28.816C83.2402 26.5013 83.4882 24.414 83.6536 22.554C84.1909 22.5953 84.6456 22.616 85.0176 22.616C85.3896 22.616 85.8236 22.616 86.3196 22.616C86.8982 22.616 87.6009 22.616 88.4276 22.616C89.2542 22.5747 90.0809 22.5333 90.9076 22.492C91.7342 22.4507 92.6229 22.4093 93.5736 22.368C94.1522 25.2613 94.6689 28.0513 95.1236 30.738C95.5782 33.094 96.0329 35.512 96.4876 37.992C96.9836 40.472 97.4176 42.58 97.7896 44.316C97.9549 43.4893 98.1409 42.5387 98.3476 41.464C98.5542 40.348 98.7816 39.1907 99.0296 37.992C99.2776 36.7933 99.5049 35.5947 99.7116 34.396C99.9596 33.156 100.208 31.9367 100.456 30.738C101.034 28.0513 101.634 25.282 102.254 22.43L109.818 21.5C108.412 27.824 107.172 33.8173 106.098 39.48C105.602 41.9187 105.106 44.3987 104.61 46.92C104.155 49.4 103.721 51.7973 103.308 54.112C102.894 56.3853 102.543 58.514 102.254 60.498C101.964 62.4407 101.737 64.0733 101.572 65.396C101.448 65.396 100.952 65.4993 100.084 65.706C99.2569 65.8713 98.2856 66.078 97.1696 66.326C96.0949 66.574 94.9996 66.822 93.8836 67.07C92.8089 67.318 92.0029 67.5453 91.4656 67.752C91.2176 64.4453 90.9489 61.304 90.6596 58.328C90.5356 57.0467 90.3909 55.7447 90.2256 54.422C90.1016 53.058 89.9569 51.756 89.7916 50.516C89.6262 49.276 89.4609 48.1187 89.2956 47.044C89.1302 45.9693 88.9649 45.0393 88.7996 44.254C88.6756 45.0393 88.5102 45.9487 88.3036 46.982C88.0969 48.0153 87.8902 49.1107 87.6836 50.268C87.4769 51.4253 87.2702 52.6447 87.0636 53.926C86.8569 55.166 86.6296 56.3647 86.3816 57.522C85.8442 60.2913 85.2656 63.1847 84.6456 66.202L75.5936 68.31ZM134.875 36.318C134.875 38.4673 134.565 40.7613 133.945 43.2C133.325 45.5973 132.457 47.9947 131.341 50.392C130.225 52.748 128.84 55.0213 127.187 57.212C125.575 59.3613 123.735 61.2627 121.669 62.916C119.602 64.528 117.329 65.83 114.849 66.822C112.41 67.814 109.806 68.31 107.037 68.31C106.458 68.31 105.879 68.2687 105.301 68.186C104.722 68.1447 104.143 68.0827 103.565 68C104.681 62.296 105.776 56.7367 106.851 51.322C107.264 49.0487 107.698 46.6927 108.153 44.254C108.607 41.774 109.041 39.3353 109.455 36.938C109.868 34.5407 110.261 32.2467 110.633 30.056C111.046 27.8653 111.377 25.8813 111.625 24.104C113.402 23.7733 115.2 23.4633 117.019 23.174C118.837 22.8847 120.697 22.74 122.599 22.74C124.831 22.74 126.711 23.0913 128.241 23.794C129.811 24.4967 131.072 25.468 132.023 26.708C133.015 27.948 133.738 29.3947 134.193 31.048C134.647 32.7013 134.875 34.458 134.875 36.318ZM120.243 31.482C119.788 33.9207 119.313 36.256 118.817 38.488C118.321 40.72 117.825 42.9727 117.329 45.246C116.833 47.5193 116.337 49.896 115.841 52.376C115.345 54.856 114.869 57.5633 114.415 60.498C115.407 59.8367 116.357 58.948 117.267 57.832C118.217 56.6747 119.106 55.352 119.933 53.864C120.759 52.376 121.503 50.8053 122.165 49.152C122.867 47.4987 123.467 45.8867 123.963 44.316C124.459 42.7453 124.831 41.278 125.079 39.914C125.368 38.55 125.513 37.372 125.513 36.38C125.513 34.8507 125.079 33.652 124.211 32.784C123.384 31.916 122.061 31.482 120.243 31.482ZM170.259 52.686C170.259 55.0007 169.805 57.1087 168.895 59.01C168.027 60.87 166.829 62.482 165.299 63.846C163.811 65.21 162.034 66.264 159.967 67.008C157.942 67.752 155.751 68.124 153.395 68.124C151.742 68.124 150.089 67.69 148.435 66.822C146.782 65.9127 145.191 64.4867 143.661 62.544L148.249 53.554C148.539 54.0913 148.973 54.6493 149.551 55.228C150.13 55.7653 150.771 56.2407 151.473 56.654C152.217 57.0673 152.941 57.4187 153.643 57.708C154.387 57.956 155.049 58.08 155.627 58.08C156.123 58.08 156.64 57.9973 157.177 57.832C157.715 57.6667 158.211 57.4187 158.665 57.088C159.12 56.7573 159.471 56.3853 159.719 55.972C160.009 55.5173 160.153 55.0007 160.153 54.422C160.153 53.43 159.823 52.5207 159.161 51.694C158.541 50.826 157.756 50.02 156.805 49.276C155.855 48.4907 154.821 47.7053 153.705 46.92C152.589 46.1347 151.556 45.308 150.605 44.44C149.696 43.572 148.911 42.6007 148.249 41.526C147.588 40.4513 147.257 39.2527 147.257 37.93C147.257 35.7807 147.898 33.776 149.179 31.916C150.461 30.056 152.052 28.4647 153.953 27.142C155.896 25.778 158.004 24.7033 160.277 23.918C162.551 23.1327 164.7 22.74 166.725 22.74C167.841 22.74 168.895 22.8847 169.887 23.174C170.879 23.422 171.727 23.856 172.429 24.476C173.173 25.0547 173.752 25.7987 174.165 26.708C174.62 27.6173 174.847 28.754 174.847 30.118C174.847 30.6967 174.785 31.2753 174.661 31.854C174.579 32.4327 174.496 33.0527 174.413 33.714L165.423 36.318C165.506 35.9873 165.568 35.6567 165.609 35.326C165.692 34.9953 165.733 34.6647 165.733 34.334C165.733 33.094 165.506 32.2053 165.051 31.668C164.638 31.0893 164.08 30.8 163.377 30.8C163.047 30.8 162.633 30.924 162.137 31.172C161.683 31.42 161.207 31.7507 160.711 32.164C160.257 32.536 159.864 32.9907 159.533 33.528C159.203 34.0653 159.037 34.644 159.037 35.264C159.037 36.256 159.306 37.0827 159.843 37.744C160.422 38.4053 161.125 39.0253 161.951 39.604C162.778 40.1827 163.667 40.782 164.617 41.402C165.609 41.9807 166.519 42.7453 167.345 43.696C168.172 44.6467 168.854 45.8453 169.391 47.292C169.97 48.6973 170.259 50.4953 170.259 52.686ZM169.93 68.062L178.052 23.98L197.644 22.306C197.355 23.2153 197.107 24.1453 196.9 25.096C196.693 25.8813 196.487 26.708 196.28 27.576C196.115 28.4027 195.97 29.1467 195.846 29.808C195.433 29.8493 194.833 29.8907 194.048 29.932C193.304 29.932 192.498 29.9527 191.63 29.994C190.762 29.994 189.873 29.994 188.964 29.994C188.096 29.994 187.331 29.994 186.67 29.994L184.5 41.092C185.781 41.0093 186.98 40.9473 188.096 40.906C189.005 40.8647 189.935 40.844 190.886 40.844C191.837 40.844 192.539 40.8233 192.994 40.782C192.829 41.9393 192.663 43.076 192.498 44.192C192.374 45.308 192.209 46.4447 192.002 47.602C191.589 47.6433 190.907 47.6847 189.956 47.726C189.047 47.726 188.117 47.7467 187.166 47.788C186.091 47.8293 184.913 47.8707 183.632 47.912L181.524 59.32L190.576 57.894L189.956 64.962L169.93 68.062ZM217.039 54.67C216.047 56.9433 214.931 58.9273 213.691 60.622C212.492 62.2753 211.211 63.6807 209.847 64.838C208.524 65.954 207.181 66.7807 205.817 67.318C204.453 67.8553 203.13 68.124 201.849 68.124C200.567 68.124 199.389 67.8347 198.315 67.256C197.281 66.6773 196.372 65.8093 195.587 64.652C194.801 63.4947 194.161 62.0687 193.665 60.374C193.21 58.6793 192.983 56.6953 192.983 54.422C192.983 50.5367 193.52 46.7133 194.595 42.952C195.669 39.1493 197.178 35.7393 199.121 32.722C201.063 29.7047 203.357 27.2867 206.003 25.468C208.689 23.608 211.645 22.678 214.869 22.678C215.861 22.678 216.811 22.8847 217.721 23.298C218.63 23.7113 219.415 24.29 220.077 25.034C220.738 25.778 221.255 26.6873 221.627 27.762C222.04 28.8367 222.247 30.0353 222.247 31.358C222.247 31.606 222.247 31.8747 222.247 32.164C222.247 32.412 222.226 32.6807 222.185 32.97L214.063 35.14C213.567 34.1067 212.988 33.59 212.327 33.59C211.665 33.59 210.963 33.9827 210.219 34.768C209.516 35.512 208.813 36.504 208.111 37.744C207.408 38.9427 206.726 40.3067 206.065 41.836C205.403 43.324 204.825 44.8327 204.329 46.362C203.833 47.8913 203.419 49.3587 203.089 50.764C202.799 52.128 202.655 53.244 202.655 54.112C202.655 55.4347 202.82 56.3647 203.151 56.902C203.523 57.4393 203.998 57.708 204.577 57.708C205.031 57.708 205.548 57.5427 206.127 57.212C206.705 56.84 207.243 56.3853 207.739 55.848C208.235 55.2693 208.689 54.6287 209.103 53.926C209.516 53.2233 209.805 52.5207 209.971 51.818L217.039 54.67ZM216.485 68.062C217.601 62.5647 218.675 57.1913 219.709 51.942C220.081 49.71 220.494 47.3953 220.949 44.998C221.403 42.5593 221.817 40.162 222.189 37.806C222.602 35.4087 222.974 33.1147 223.305 30.924C223.677 28.692 223.966 26.6667 224.173 24.848C226.529 24.104 229.071 23.5667 231.799 23.236C234.527 22.864 237.234 22.678 239.921 22.678C241.533 22.678 242.855 22.864 243.889 23.236C244.963 23.608 245.79 24.1453 246.369 24.848C246.989 25.5093 247.423 26.2947 247.671 27.204C247.919 28.1133 248.043 29.126 248.043 30.242C248.043 31.8953 247.753 33.528 247.175 35.14C246.596 36.7107 245.811 38.2193 244.819 39.666C243.868 41.0713 242.752 42.3733 241.471 43.572C240.231 44.7293 238.887 45.68 237.441 46.424C238.185 48.0773 238.97 49.896 239.797 51.88C240.665 53.8227 241.471 55.6827 242.215 57.46C243.041 59.5267 243.889 61.5933 244.757 63.66L235.147 67.008C234.32 64.3627 233.576 61.8827 232.915 59.568C232.625 58.6173 232.336 57.646 232.047 56.654C231.757 55.6207 231.489 54.6493 231.241 53.74C230.993 52.8307 230.786 52.0247 230.621 51.322C230.455 50.578 230.352 49.9787 230.311 49.524L229.505 49.772C229.257 51.0947 228.947 52.6447 228.575 54.422C228.244 56.1993 227.934 57.9147 227.645 59.568C227.273 61.5107 226.901 63.474 226.529 65.458L216.485 68.062ZM231.055 41.154C231.84 41.0713 232.791 40.7407 233.907 40.162C235.064 39.5833 236.159 38.9013 237.193 38.116C238.226 37.2893 239.115 36.442 239.859 35.574C240.603 34.706 240.975 33.9413 240.975 33.28C240.975 32.8253 240.83 32.474 240.541 32.226C240.251 31.9367 239.838 31.73 239.301 31.606C238.805 31.4407 238.247 31.3373 237.627 31.296C237.007 31.2547 236.366 31.234 235.705 31.234C235.25 31.234 234.775 31.2547 234.279 31.296C233.824 31.296 233.411 31.296 233.039 31.296L231.055 41.154ZM244.282 68.062L252.404 23.98L271.996 22.306C271.706 23.2153 271.458 24.1453 271.252 25.096C271.045 25.8813 270.838 26.708 270.632 27.576C270.466 28.4027 270.322 29.1467 270.198 29.808C269.784 29.8493 269.185 29.8907 268.4 29.932C267.656 29.932 266.85 29.9527 265.982 29.994C265.114 29.994 264.225 29.994 263.316 29.994C262.448 29.994 261.683 29.994 261.022 29.994L258.852 41.092C260.133 41.0093 261.332 40.9473 262.448 40.906C263.357 40.8647 264.287 40.844 265.238 40.844C266.188 40.844 266.891 40.8233 267.346 40.782C267.18 41.9393 267.015 43.076 266.85 44.192C266.726 45.308 266.56 46.4447 266.354 47.602C265.94 47.6433 265.258 47.6847 264.308 47.726C263.398 47.726 262.468 47.7467 261.518 47.788C260.443 47.8293 259.265 47.8707 257.984 47.912L255.876 59.32L264.928 57.894L264.308 64.962L244.282 68.062ZM270.496 68.062C271.447 63.5153 272.356 59.0307 273.224 54.608C273.596 52.748 273.968 50.8053 274.34 48.78C274.712 46.7547 275.064 44.7707 275.394 42.828C275.766 40.844 276.076 38.9427 276.324 37.124C276.614 35.264 276.862 33.5693 277.068 32.04C276.118 31.916 275.146 31.8747 274.154 31.916C273.204 31.9573 272.253 31.8333 271.302 31.544C271.344 30.8827 271.364 30.118 271.364 29.25C271.364 28.382 271.385 27.514 271.426 26.646C271.468 25.6953 271.509 24.6827 271.55 23.608C272.625 23.6907 273.7 23.7527 274.774 23.794C275.849 23.8353 276.924 23.856 277.998 23.856C280.106 23.856 282.132 23.8147 284.074 23.732C286.058 23.608 287.877 23.484 289.53 23.36C291.225 23.1947 292.878 23.0087 294.49 22.802L293.808 26.15C293.602 27.1007 293.395 28.072 293.188 29.064C293.023 30.056 292.858 30.9033 292.692 31.606C291.783 31.854 290.853 32.04 289.902 32.164C288.993 32.2467 288.084 32.3707 287.174 32.536C286.885 33.9413 286.575 35.512 286.244 37.248C285.914 38.9427 285.583 40.72 285.252 42.58C284.963 44.3987 284.674 46.2587 284.384 48.16C284.095 50.0613 283.806 51.88 283.516 53.616C282.855 57.708 282.235 61.9447 281.656 66.326L270.496 68.062ZM303.147 68.558C303.684 62.7713 304.18 57.088 304.635 51.508C304.841 49.1933 305.027 46.7547 305.193 44.192C305.399 41.6293 305.565 39.108 305.689 36.628C305.854 34.1067 305.978 31.6887 306.061 29.374C306.143 27.018 306.205 24.8687 306.247 22.926C307.239 22.926 308.293 22.9053 309.409 22.864C310.566 22.8227 311.599 22.7813 312.509 22.74C313.459 22.6987 314.265 22.6573 314.927 22.616C315.588 22.5333 315.919 22.492 315.919 22.492C315.464 27.2867 315.071 31.234 314.741 34.334C314.41 37.3927 314.141 39.8933 313.935 41.836C313.769 43.7373 313.604 45.5767 313.439 47.354C313.315 49.1313 313.17 50.7847 313.005 52.314C312.839 53.8433 312.695 55.1453 312.571 56.22H313.687L320.631 23.236C321.747 23.1947 322.883 23.1327 324.041 23.05C325.074 22.9673 326.149 22.9053 327.265 22.864C328.422 22.8227 329.476 22.74 330.427 22.616C329.848 24.4347 329.249 26.4393 328.629 28.63C328.05 30.8207 327.43 33.094 326.769 35.45C326.149 37.806 325.529 40.2033 324.909 42.642C324.33 45.0807 323.751 47.4367 323.173 49.71C321.85 55.042 320.527 60.5187 319.205 66.14L303.147 68.558ZM345.797 66.76C344.764 66.9253 343.627 67.1113 342.387 67.318C341.147 67.5247 340.031 67.7107 339.039 67.876C339.204 66.512 339.37 65.1687 339.535 63.846C339.659 62.6887 339.762 61.5313 339.845 60.374C339.969 59.2167 340.072 58.2247 340.155 57.398H334.761L332.281 66.326C331.372 66.45 330.297 66.5947 329.057 66.76C327.817 66.884 326.66 67.008 325.585 67.132C324.262 67.2973 322.96 67.4627 321.679 67.628C323.332 62.1307 324.965 56.716 326.577 51.384C327.238 49.152 327.92 46.8167 328.623 44.378C329.367 41.9393 330.09 39.5213 330.793 37.124C331.537 34.6853 332.24 32.35 332.901 30.118C333.562 27.886 334.141 25.84 334.637 23.98C337.448 23.7733 340.3 23.5253 343.193 23.236C346.128 22.9467 348.98 22.554 351.749 22.058C351.625 23.3807 351.48 25.034 351.315 27.018C351.191 28.9607 351.067 31.0893 350.943 33.404C350.819 35.7187 350.695 38.1367 350.571 40.658C350.447 43.1793 350.323 45.6593 350.199 48.098C349.992 53.802 349.765 59.8573 349.517 66.264C348.277 66.4707 347.037 66.636 345.797 66.76ZM336.249 51.198C336.414 51.198 336.704 51.198 337.117 51.198C337.572 51.1567 338.026 51.136 338.481 51.136C338.977 51.0947 339.432 51.074 339.845 51.074C340.258 51.0327 340.548 50.9913 340.713 50.95C340.713 50.702 340.734 50.2887 340.775 49.71C340.858 49.09 340.92 48.408 340.961 47.664C341.044 46.8787 341.126 46.0313 341.209 45.122C341.292 44.2127 341.374 43.324 341.457 42.456C341.622 40.348 341.829 38.0747 342.077 35.636L342.449 30.242L341.519 30.304L340.093 35.636L336.249 51.198ZM366.915 66.016C365.634 66.016 364.27 66.0573 362.823 66.14C361.418 66.2227 359.992 66.3467 358.545 66.512C357.098 66.6773 355.672 66.9047 354.267 67.194C352.903 67.442 351.663 67.752 350.547 68.124C350.795 66.264 351.084 64.1973 351.415 61.924C351.746 59.6507 352.118 57.2947 352.531 54.856C352.986 52.4173 353.42 49.958 353.833 47.478C354.288 44.998 354.742 42.6213 355.197 40.348C356.23 34.9333 357.326 29.4153 358.483 23.794L369.333 22.368C368.217 27.1627 367.142 31.8333 366.109 36.38C365.654 38.3227 365.2 40.348 364.745 42.456C364.29 44.5227 363.856 46.548 363.443 48.532C363.03 50.516 362.658 52.438 362.327 54.298C361.996 56.158 361.728 57.8113 361.521 59.258C362.554 59.1753 363.65 59.134 364.807 59.134C366.006 59.0927 367.06 59.072 367.969 59.072C368.01 59.8573 368.072 60.6427 368.155 61.428C368.238 62.172 368.32 62.854 368.403 63.474C368.527 64.094 368.61 64.652 368.651 65.148C368.734 65.6027 368.796 65.9127 368.837 66.078C368.506 66.078 368.176 66.078 367.845 66.078C367.556 66.0367 367.246 66.016 366.915 66.016ZM369.008 68.062L377.13 23.98L396.722 22.306C396.433 23.2153 396.185 24.1453 395.978 25.096C395.771 25.8813 395.565 26.708 395.358 27.576C395.193 28.4027 395.048 29.1467 394.924 29.808C394.511 29.8493 393.911 29.8907 393.126 29.932C392.382 29.932 391.576 29.9527 390.708 29.994C389.84 29.994 388.951 29.994 388.042 29.994C387.174 29.994 386.409 29.994 385.748 29.994L383.578 41.092C384.859 41.0093 386.058 40.9473 387.174 40.906C388.083 40.8647 389.013 40.844 389.964 40.844C390.915 40.844 391.617 40.8233 392.072 40.782C391.907 41.9393 391.741 43.076 391.576 44.192C391.452 45.308 391.287 46.4447 391.08 47.602C390.667 47.6433 389.985 47.6847 389.034 47.726C388.125 47.726 387.195 47.7467 386.244 47.788C385.169 47.8293 383.991 47.8707 382.71 47.912L380.602 59.32L389.654 57.894L389.034 64.962L369.008 68.062ZM389.953 68.31C391.193 62.358 392.371 56.592 393.487 51.012C393.9 48.6147 394.334 46.1347 394.789 43.572C395.285 41.0093 395.74 38.488 396.153 36.008C396.566 33.4867 396.938 31.0893 397.269 28.816C397.6 26.5013 397.848 24.414 398.013 22.554C398.55 22.5953 399.005 22.616 399.377 22.616C399.749 22.616 400.183 22.616 400.679 22.616C401.258 22.616 401.96 22.616 402.787 22.616C403.614 22.5747 404.44 22.5333 405.267 22.492C406.094 22.4507 406.982 22.4093 407.933 22.368C408.512 25.2613 409.028 28.0513 409.483 30.738C409.938 33.094 410.392 35.512 410.847 37.992C411.343 40.472 411.777 42.58 412.149 44.316C412.314 43.4893 412.5 42.5387 412.707 41.464C412.914 40.348 413.141 39.1907 413.389 37.992C413.637 36.7933 413.864 35.5947 414.071 34.396C414.319 33.156 414.567 31.9367 414.815 30.738C415.394 28.0513 415.993 25.282 416.613 22.43L424.177 21.5C422.772 27.824 421.532 33.8173 420.457 39.48C419.961 41.9187 419.465 44.3987 418.969 46.92C418.514 49.4 418.08 51.7973 417.667 54.112C417.254 56.3853 416.902 58.514 416.613 60.498C416.324 62.4407 416.096 64.0733 415.931 65.396C415.807 65.396 415.311 65.4993 414.443 65.706C413.616 65.8713 412.645 66.078 411.529 66.326C410.454 66.574 409.359 66.822 408.243 67.07C407.168 67.318 406.362 67.5453 405.825 67.752C405.577 64.4453 405.308 61.304 405.019 58.328C404.895 57.0467 404.75 55.7447 404.585 54.422C404.461 53.058 404.316 51.756 404.151 50.516C403.986 49.276 403.82 48.1187 403.655 47.044C403.49 45.9693 403.324 45.0393 403.159 44.254C403.035 45.0393 402.87 45.9487 402.663 46.982C402.456 48.0153 402.25 49.1107 402.043 50.268C401.836 51.4253 401.63 52.6447 401.423 53.926C401.216 55.166 400.989 56.3647 400.741 57.522C400.204 60.2913 399.625 63.1847 399.005 66.202L389.953 68.31ZM423.256 68.062C424.207 63.5153 425.116 59.0307 425.984 54.608C426.356 52.748 426.728 50.8053 427.1 48.78C427.472 46.7547 427.823 44.7707 428.154 42.828C428.526 40.844 428.836 38.9427 429.084 37.124C429.373 35.264 429.621 33.5693 429.828 32.04C428.877 31.916 427.906 31.8747 426.914 31.916C425.963 31.9573 425.013 31.8333 424.062 31.544C424.103 30.8827 424.124 30.118 424.124 29.25C424.124 28.382 424.145 27.514 424.186 26.646C424.227 25.6953 424.269 24.6827 424.31 23.608C425.385 23.6907 426.459 23.7527 427.534 23.794C428.609 23.8353 429.683 23.856 430.758 23.856C432.866 23.856 434.891 23.8147 436.834 23.732C438.818 23.608 440.637 23.484 442.29 23.36C443.985 23.1947 445.638 23.0087 447.25 22.802L446.568 26.15C446.361 27.1007 446.155 28.072 445.948 29.064C445.783 30.056 445.617 30.9033 445.452 31.606C444.543 31.854 443.613 32.04 442.662 32.164C441.753 32.2467 440.843 32.3707 439.934 32.536C439.645 33.9413 439.335 35.512 439.004 37.248C438.673 38.9427 438.343 40.72 438.012 42.58C437.723 44.3987 437.433 46.2587 437.144 48.16C436.855 50.0613 436.565 51.88 436.276 53.616C435.615 57.708 434.995 61.9447 434.416 66.326L423.256 68.062ZM450.679 66.76C450.307 66.76 449.563 66.822 448.447 66.946C447.372 67.0287 446.256 67.1527 445.099 67.318C443.942 67.442 442.888 67.566 441.937 67.69C441.028 67.814 440.532 67.8967 440.449 67.938C440.862 66.1607 441.276 64.1973 441.689 62.048C442.144 59.8573 442.598 57.584 443.053 55.228C443.508 52.8307 443.942 50.4127 444.355 47.974C444.768 45.5353 445.161 43.1793 445.533 40.906C446.401 35.6153 447.269 30.18 448.137 24.6L457.809 23.05C456.858 28.5887 455.928 34.024 455.019 39.356C454.647 41.6293 454.254 43.9853 453.841 46.424C453.469 48.8627 453.076 51.2807 452.663 53.678C452.291 56.0753 451.94 58.4107 451.609 60.684C451.278 62.916 450.968 64.9413 450.679 66.76ZM452.982 68.31C454.222 62.358 455.4 56.592 456.516 51.012C456.93 48.6147 457.364 46.1347 457.818 43.572C458.314 41.0093 458.769 38.488 459.182 36.008C459.596 33.4867 459.968 31.0893 460.298 28.816C460.629 26.5013 460.877 24.414 461.042 22.554C461.58 22.5953 462.034 22.616 462.406 22.616C462.778 22.616 463.212 22.616 463.708 22.616C464.287 22.616 464.99 22.616 465.816 22.616C466.643 22.5747 467.47 22.5333 468.296 22.492C469.123 22.4507 470.012 22.4093 470.962 22.368C471.541 25.2613 472.058 28.0513 472.512 30.738C472.967 33.094 473.422 35.512 473.876 37.992C474.372 40.472 474.806 42.58 475.178 44.316C475.344 43.4893 475.53 42.5387 475.736 41.464C475.943 40.348 476.17 39.1907 476.418 37.992C476.666 36.7933 476.894 35.5947 477.1 34.396C477.348 33.156 477.596 31.9367 477.844 30.738C478.423 28.0513 479.022 25.282 479.642 22.43L487.206 21.5C485.801 27.824 484.561 33.8173 483.486 39.48C482.99 41.9187 482.494 44.3987 481.998 46.92C481.544 49.4 481.11 51.7973 480.696 54.112C480.283 56.3853 479.932 58.514 479.642 60.498C479.353 62.4407 479.126 64.0733 478.96 65.396C478.836 65.396 478.34 65.4993 477.472 65.706C476.646 65.8713 475.674 66.078 474.558 66.326C473.484 66.574 472.388 66.822 471.272 67.07C470.198 67.318 469.392 67.5453 468.854 67.752C468.606 64.4453 468.338 61.304 468.048 58.328C467.924 57.0467 467.78 55.7447 467.614 54.422C467.49 53.058 467.346 51.756 467.18 50.516C467.015 49.276 466.85 48.1187 466.684 47.044C466.519 45.9693 466.354 45.0393 466.188 44.254C466.064 45.0393 465.899 45.9487 465.692 46.982C465.486 48.0153 465.279 49.1107 465.072 50.268C464.866 51.4253 464.659 52.6447 464.452 53.926C464.246 55.166 464.018 56.3647 463.77 57.522C463.233 60.2913 462.654 63.1847 462.034 66.202L452.982 68.31ZM481.201 68.062L489.323 23.98L508.915 22.306C508.626 23.2153 508.378 24.1453 508.171 25.096C507.965 25.8813 507.758 26.708 507.551 27.576C507.386 28.4027 507.241 29.1467 507.117 29.808C506.704 29.8493 506.105 29.8907 505.319 29.932C504.575 29.932 503.769 29.9527 502.901 29.994C502.033 29.994 501.145 29.994 500.235 29.994C499.367 29.994 498.603 29.994 497.941 29.994L495.771 41.092C497.053 41.0093 498.251 40.9473 499.367 40.906C500.277 40.8647 501.207 40.844 502.157 40.844C503.108 40.844 503.811 40.8233 504.265 40.782C504.1 41.9393 503.935 43.076 503.769 44.192C503.645 45.308 503.48 46.4447 503.273 47.602C502.86 47.6433 502.178 47.6847 501.227 47.726C500.318 47.726 499.388 47.7467 498.437 47.788C497.363 47.8293 496.185 47.8707 494.903 47.912L492.795 59.32L501.847 57.894L501.227 64.962L481.201 68.062Z" fill="#FF1418"/>
    <path d="M56.9781 49.686C56.9781 52.0007 56.5234 54.1087 55.6141 56.01C54.7461 57.87 53.5474 59.482 52.0181 60.846C50.5301 62.21 48.7528 63.264 46.6861 64.008C44.6608 64.752 42.4701 65.124 40.1141 65.124C38.4608 65.124 36.8074 64.69 35.1541 63.822C33.5008 62.9127 31.9094 61.4867 30.3801 59.544L34.9681 50.554C35.2574 51.0913 35.6914 51.6493 36.2701 52.228C36.8488 52.7653 37.4894 53.2407 38.1921 53.654C38.9361 54.0673 39.6594 54.4187 40.3621 54.708C41.1061 54.956 41.7674 55.08 42.3461 55.08C42.8421 55.08 43.3588 54.9973 43.8961 54.832C44.4334 54.6667 44.9294 54.4187 45.3841 54.088C45.8388 53.7573 46.1901 53.3853 46.4381 52.972C46.7274 52.5173 46.8721 52.0007 46.8721 51.422C46.8721 50.43 46.5414 49.5207 45.8801 48.694C45.2601 47.826 44.4748 47.02 43.5241 46.276C42.5734 45.4907 41.5401 44.7053 40.4241 43.92C39.3081 43.1347 38.2748 42.308 37.3241 41.44C36.4148 40.572 35.6294 39.6007 34.9681 38.526C34.3068 37.4513 33.9761 36.2527 33.9761 34.93C33.9761 32.7807 34.6168 30.776 35.8981 28.916C37.1794 27.056 38.7708 25.4647 40.6721 24.142C42.6148 22.778 44.7228 21.7033 46.9961 20.918C49.2694 20.1327 51.4188 19.74 53.4441 19.74C54.5601 19.74 55.6141 19.8847 56.6061 20.174C57.5981 20.422 58.4454 20.856 59.1481 21.476C59.8921 22.0547 60.4708 22.7987 60.8841 23.708C61.3388 24.6173 61.5661 25.754 61.5661 27.118C61.5661 27.6967 61.5041 28.2753 61.3801 28.854C61.2974 29.4327 61.2148 30.0527 61.1321 30.714L52.1421 33.318C52.2248 32.9873 52.2868 32.6567 52.3281 32.326C52.4108 31.9953 52.4521 31.6647 52.4521 31.334C52.4521 30.094 52.2248 29.2053 51.7701 28.668C51.3568 28.0893 50.7988 27.8 50.0961 27.8C49.7654 27.8 49.3521 27.924 48.8561 28.172C48.4014 28.42 47.9261 28.7507 47.4301 29.164C46.9754 29.536 46.5828 29.9907 46.2521 30.528C45.9214 31.0653 45.7561 31.644 45.7561 32.264C45.7561 33.256 46.0248 34.0827 46.5621 34.744C47.1408 35.4053 47.8434 36.0253 48.6701 36.604C49.4968 37.1827 50.3854 37.782 51.3361 38.402C52.3281 38.9807 53.2374 39.7453 54.0641 40.696C54.8908 41.6467 55.5728 42.8453 56.1101 44.292C56.6888 45.6973 56.9781 47.4953 56.9781 49.686ZM56.6487 65.062L64.7707 20.98L84.3627 19.306C84.0734 20.2153 83.8254 21.1453 83.6187 22.096C83.412 22.8813 83.2054 23.708 82.9987 24.576C82.8334 25.4027 82.6887 26.1467 82.5647 26.808C82.1514 26.8493 81.552 26.8907 80.7667 26.932C80.0227 26.932 79.2167 26.9527 78.3487 26.994C77.4807 26.994 76.592 26.994 75.6827 26.994C74.8147 26.994 74.05 26.994 73.3887 26.994L71.2187 38.092C72.5 38.0093 73.6987 37.9473 74.8147 37.906C75.724 37.8647 76.654 37.844 77.6047 37.844C78.5554 37.844 79.258 37.8233 79.7127 37.782C79.5474 38.9393 79.382 40.076 79.2167 41.192C79.0927 42.308 78.9274 43.4447 78.7207 44.602C78.3074 44.6433 77.6254 44.6847 76.6747 44.726C75.7654 44.726 74.8354 44.7467 73.8847 44.788C72.81 44.8293 71.632 44.8707 70.3507 44.912L68.2427 56.32L77.2947 54.894L76.6747 61.962L56.6487 65.062ZM77.5936 65.31C78.8336 59.358 80.0116 53.592 81.1276 48.012C81.5409 45.6147 81.9749 43.1347 82.4296 40.572C82.9256 38.0093 83.3802 35.488 83.7936 33.008C84.2069 30.4867 84.5789 28.0893 84.9096 25.816C85.2402 23.5013 85.4882 21.414 85.6536 19.554C86.1909 19.5953 86.6456 19.616 87.0176 19.616C87.3896 19.616 87.8236 19.616 88.3196 19.616C88.8982 19.616 89.6009 19.616 90.4276 19.616C91.2542 19.5747 92.0809 19.5333 92.9076 19.492C93.7342 19.4507 94.6229 19.4093 95.5736 19.368C96.1522 22.2613 96.6689 25.0513 97.1236 27.738C97.5782 30.094 98.0329 32.512 98.4876 34.992C98.9836 37.472 99.4176 39.58 99.7896 41.316C99.9549 40.4893 100.141 39.5387 100.348 38.464C100.554 37.348 100.782 36.1907 101.03 34.992C101.278 33.7933 101.505 32.5947 101.712 31.396C101.96 30.156 102.208 28.9367 102.456 27.738C103.034 25.0513 103.634 22.282 104.254 19.43L111.818 18.5C110.412 24.824 109.172 30.8173 108.098 36.48C107.602 38.9187 107.106 41.3987 106.61 43.92C106.155 46.4 105.721 48.7973 105.308 51.112C104.894 53.3853 104.543 55.514 104.254 57.498C103.964 59.4407 103.737 61.0733 103.572 62.396C103.448 62.396 102.952 62.4993 102.084 62.706C101.257 62.8713 100.286 63.078 99.1696 63.326C98.0949 63.574 96.9996 63.822 95.8836 64.07C94.8089 64.318 94.0029 64.5453 93.4656 64.752C93.2176 61.4453 92.9489 58.304 92.6596 55.328C92.5356 54.0467 92.3909 52.7447 92.2256 51.422C92.1016 50.058 91.9569 48.756 91.7916 47.516C91.6262 46.276 91.4609 45.1187 91.2956 44.044C91.1302 42.9693 90.9649 42.0393 90.7996 41.254C90.6756 42.0393 90.5102 42.9487 90.3036 43.982C90.0969 45.0153 89.8902 46.1107 89.6836 47.268C89.4769 48.4253 89.2702 49.6447 89.0636 50.926C88.8569 52.166 88.6296 53.3647 88.3816 54.522C87.8442 57.2913 87.2656 60.1847 86.6456 63.202L77.5936 65.31ZM136.875 33.318C136.875 35.4673 136.565 37.7613 135.945 40.2C135.325 42.5973 134.457 44.9947 133.341 47.392C132.225 49.748 130.84 52.0213 129.187 54.212C127.575 56.3613 125.735 58.2627 123.669 59.916C121.602 61.528 119.329 62.83 116.849 63.822C114.41 64.814 111.806 65.31 109.037 65.31C108.458 65.31 107.879 65.2687 107.301 65.186C106.722 65.1447 106.143 65.0827 105.565 65C106.681 59.296 107.776 53.7367 108.851 48.322C109.264 46.0487 109.698 43.6927 110.153 41.254C110.607 38.774 111.041 36.3353 111.455 33.938C111.868 31.5407 112.261 29.2467 112.633 27.056C113.046 24.8653 113.377 22.8813 113.625 21.104C115.402 20.7733 117.2 20.4633 119.019 20.174C120.837 19.8847 122.697 19.74 124.599 19.74C126.831 19.74 128.711 20.0913 130.241 20.794C131.811 21.4967 133.072 22.468 134.023 23.708C135.015 24.948 135.738 26.3947 136.193 28.048C136.647 29.7013 136.875 31.458 136.875 33.318ZM122.243 28.482C121.788 30.9207 121.313 33.256 120.817 35.488C120.321 37.72 119.825 39.9727 119.329 42.246C118.833 44.5193 118.337 46.896 117.841 49.376C117.345 51.856 116.869 54.5633 116.415 57.498C117.407 56.8367 118.357 55.948 119.267 54.832C120.217 53.6747 121.106 52.352 121.933 50.864C122.759 49.376 123.503 47.8053 124.165 46.152C124.867 44.4987 125.467 42.8867 125.963 41.316C126.459 39.7453 126.831 38.278 127.079 36.914C127.368 35.55 127.513 34.372 127.513 33.38C127.513 31.8507 127.079 30.652 126.211 29.784C125.384 28.916 124.061 28.482 122.243 28.482ZM172.259 49.686C172.259 52.0007 171.805 54.1087 170.895 56.01C170.027 57.87 168.829 59.482 167.299 60.846C165.811 62.21 164.034 63.264 161.967 64.008C159.942 64.752 157.751 65.124 155.395 65.124C153.742 65.124 152.089 64.69 150.435 63.822C148.782 62.9127 147.191 61.4867 145.661 59.544L150.249 50.554C150.539 51.0913 150.973 51.6493 151.551 52.228C152.13 52.7653 152.771 53.2407 153.473 53.654C154.217 54.0673 154.941 54.4187 155.643 54.708C156.387 54.956 157.049 55.08 157.627 55.08C158.123 55.08 158.64 54.9973 159.177 54.832C159.715 54.6667 160.211 54.4187 160.665 54.088C161.12 53.7573 161.471 53.3853 161.719 52.972C162.009 52.5173 162.153 52.0007 162.153 51.422C162.153 50.43 161.823 49.5207 161.161 48.694C160.541 47.826 159.756 47.02 158.805 46.276C157.855 45.4907 156.821 44.7053 155.705 43.92C154.589 43.1347 153.556 42.308 152.605 41.44C151.696 40.572 150.911 39.6007 150.249 38.526C149.588 37.4513 149.257 36.2527 149.257 34.93C149.257 32.7807 149.898 30.776 151.179 28.916C152.461 27.056 154.052 25.4647 155.953 24.142C157.896 22.778 160.004 21.7033 162.277 20.918C164.551 20.1327 166.7 19.74 168.725 19.74C169.841 19.74 170.895 19.8847 171.887 20.174C172.879 20.422 173.727 20.856 174.429 21.476C175.173 22.0547 175.752 22.7987 176.165 23.708C176.62 24.6173 176.847 25.754 176.847 27.118C176.847 27.6967 176.785 28.2753 176.661 28.854C176.579 29.4327 176.496 30.0527 176.413 30.714L167.423 33.318C167.506 32.9873 167.568 32.6567 167.609 32.326C167.692 31.9953 167.733 31.6647 167.733 31.334C167.733 30.094 167.506 29.2053 167.051 28.668C166.638 28.0893 166.08 27.8 165.377 27.8C165.047 27.8 164.633 27.924 164.137 28.172C163.683 28.42 163.207 28.7507 162.711 29.164C162.257 29.536 161.864 29.9907 161.533 30.528C161.203 31.0653 161.037 31.644 161.037 32.264C161.037 33.256 161.306 34.0827 161.843 34.744C162.422 35.4053 163.125 36.0253 163.951 36.604C164.778 37.1827 165.667 37.782 166.617 38.402C167.609 38.9807 168.519 39.7453 169.345 40.696C170.172 41.6467 170.854 42.8453 171.391 44.292C171.97 45.6973 172.259 47.4953 172.259 49.686ZM171.93 65.062L180.052 20.98L199.644 19.306C199.355 20.2153 199.107 21.1453 198.9 22.096C198.693 22.8813 198.487 23.708 198.28 24.576C198.115 25.4027 197.97 26.1467 197.846 26.808C197.433 26.8493 196.833 26.8907 196.048 26.932C195.304 26.932 194.498 26.9527 193.63 26.994C192.762 26.994 191.873 26.994 190.964 26.994C190.096 26.994 189.331 26.994 188.67 26.994L186.5 38.092C187.781 38.0093 188.98 37.9473 190.096 37.906C191.005 37.8647 191.935 37.844 192.886 37.844C193.837 37.844 194.539 37.8233 194.994 37.782C194.829 38.9393 194.663 40.076 194.498 41.192C194.374 42.308 194.209 43.4447 194.002 44.602C193.589 44.6433 192.907 44.6847 191.956 44.726C191.047 44.726 190.117 44.7467 189.166 44.788C188.091 44.8293 186.913 44.8707 185.632 44.912L183.524 56.32L192.576 54.894L191.956 61.962L171.93 65.062ZM219.039 51.67C218.047 53.9433 216.931 55.9273 215.691 57.622C214.492 59.2753 213.211 60.6807 211.847 61.838C210.524 62.954 209.181 63.7807 207.817 64.318C206.453 64.8553 205.13 65.124 203.849 65.124C202.567 65.124 201.389 64.8347 200.315 64.256C199.281 63.6773 198.372 62.8093 197.587 61.652C196.801 60.4947 196.161 59.0687 195.665 57.374C195.21 55.6793 194.983 53.6953 194.983 51.422C194.983 47.5367 195.52 43.7133 196.595 39.952C197.669 36.1493 199.178 32.7393 201.121 29.722C203.063 26.7047 205.357 24.2867 208.003 22.468C210.689 20.608 213.645 19.678 216.869 19.678C217.861 19.678 218.811 19.8847 219.721 20.298C220.63 20.7113 221.415 21.29 222.077 22.034C222.738 22.778 223.255 23.6873 223.627 24.762C224.04 25.8367 224.247 27.0353 224.247 28.358C224.247 28.606 224.247 28.8747 224.247 29.164C224.247 29.412 224.226 29.6807 224.185 29.97L216.063 32.14C215.567 31.1067 214.988 30.59 214.327 30.59C213.665 30.59 212.963 30.9827 212.219 31.768C211.516 32.512 210.813 33.504 210.111 34.744C209.408 35.9427 208.726 37.3067 208.065 38.836C207.403 40.324 206.825 41.8327 206.329 43.362C205.833 44.8913 205.419 46.3587 205.089 47.764C204.799 49.128 204.655 50.244 204.655 51.112C204.655 52.4347 204.82 53.3647 205.151 53.902C205.523 54.4393 205.998 54.708 206.577 54.708C207.031 54.708 207.548 54.5427 208.127 54.212C208.705 53.84 209.243 53.3853 209.739 52.848C210.235 52.2693 210.689 51.6287 211.103 50.926C211.516 50.2233 211.805 49.5207 211.971 48.818L219.039 51.67ZM218.485 65.062C219.601 59.5647 220.675 54.1913 221.709 48.942C222.081 46.71 222.494 44.3953 222.949 41.998C223.403 39.5593 223.817 37.162 224.189 34.806C224.602 32.4087 224.974 30.1147 225.305 27.924C225.677 25.692 225.966 23.6667 226.173 21.848C228.529 21.104 231.071 20.5667 233.799 20.236C236.527 19.864 239.234 19.678 241.921 19.678C243.533 19.678 244.855 19.864 245.889 20.236C246.963 20.608 247.79 21.1453 248.369 21.848C248.989 22.5093 249.423 23.2947 249.671 24.204C249.919 25.1133 250.043 26.126 250.043 27.242C250.043 28.8953 249.753 30.528 249.175 32.14C248.596 33.7107 247.811 35.2193 246.819 36.666C245.868 38.0713 244.752 39.3733 243.471 40.572C242.231 41.7293 240.887 42.68 239.441 43.424C240.185 45.0773 240.97 46.896 241.797 48.88C242.665 50.8227 243.471 52.6827 244.215 54.46C245.041 56.5267 245.889 58.5933 246.757 60.66L237.147 64.008C236.32 61.3627 235.576 58.8827 234.915 56.568C234.625 55.6173 234.336 54.646 234.047 53.654C233.757 52.6207 233.489 51.6493 233.241 50.74C232.993 49.8307 232.786 49.0247 232.621 48.322C232.455 47.578 232.352 46.9787 232.311 46.524L231.505 46.772C231.257 48.0947 230.947 49.6447 230.575 51.422C230.244 53.1993 229.934 54.9147 229.645 56.568C229.273 58.5107 228.901 60.474 228.529 62.458L218.485 65.062ZM233.055 38.154C233.84 38.0713 234.791 37.7407 235.907 37.162C237.064 36.5833 238.159 35.9013 239.193 35.116C240.226 34.2893 241.115 33.442 241.859 32.574C242.603 31.706 242.975 30.9413 242.975 30.28C242.975 29.8253 242.83 29.474 242.541 29.226C242.251 28.9367 241.838 28.73 241.301 28.606C240.805 28.4407 240.247 28.3373 239.627 28.296C239.007 28.2547 238.366 28.234 237.705 28.234C237.25 28.234 236.775 28.2547 236.279 28.296C235.824 28.296 235.411 28.296 235.039 28.296L233.055 38.154ZM246.282 65.062L254.404 20.98L273.996 19.306C273.706 20.2153 273.458 21.1453 273.252 22.096C273.045 22.8813 272.838 23.708 272.632 24.576C272.466 25.4027 272.322 26.1467 272.198 26.808C271.784 26.8493 271.185 26.8907 270.4 26.932C269.656 26.932 268.85 26.9527 267.982 26.994C267.114 26.994 266.225 26.994 265.316 26.994C264.448 26.994 263.683 26.994 263.022 26.994L260.852 38.092C262.133 38.0093 263.332 37.9473 264.448 37.906C265.357 37.8647 266.287 37.844 267.238 37.844C268.188 37.844 268.891 37.8233 269.346 37.782C269.18 38.9393 269.015 40.076 268.85 41.192C268.726 42.308 268.56 43.4447 268.354 44.602C267.94 44.6433 267.258 44.6847 266.308 44.726C265.398 44.726 264.468 44.7467 263.518 44.788C262.443 44.8293 261.265 44.8707 259.984 44.912L257.876 56.32L266.928 54.894L266.308 61.962L246.282 65.062ZM272.496 65.062C273.447 60.5153 274.356 56.0307 275.224 51.608C275.596 49.748 275.968 47.8053 276.34 45.78C276.712 43.7547 277.064 41.7707 277.394 39.828C277.766 37.844 278.076 35.9427 278.324 34.124C278.614 32.264 278.862 30.5693 279.068 29.04C278.118 28.916 277.146 28.8747 276.154 28.916C275.204 28.9573 274.253 28.8333 273.302 28.544C273.344 27.8827 273.364 27.118 273.364 26.25C273.364 25.382 273.385 24.514 273.426 23.646C273.468 22.6953 273.509 21.6827 273.55 20.608C274.625 20.6907 275.7 20.7527 276.774 20.794C277.849 20.8353 278.924 20.856 279.998 20.856C282.106 20.856 284.132 20.8147 286.074 20.732C288.058 20.608 289.877 20.484 291.53 20.36C293.225 20.1947 294.878 20.0087 296.49 19.802L295.808 23.15C295.602 24.1007 295.395 25.072 295.188 26.064C295.023 27.056 294.858 27.9033 294.692 28.606C293.783 28.854 292.853 29.04 291.902 29.164C290.993 29.2467 290.084 29.3707 289.174 29.536C288.885 30.9413 288.575 32.512 288.244 34.248C287.914 35.9427 287.583 37.72 287.252 39.58C286.963 41.3987 286.674 43.2587 286.384 45.16C286.095 47.0613 285.806 48.88 285.516 50.616C284.855 54.708 284.235 58.9447 283.656 63.326L272.496 65.062ZM305.147 65.558C305.684 59.7713 306.18 54.088 306.635 48.508C306.841 46.1933 307.027 43.7547 307.193 41.192C307.399 38.6293 307.565 36.108 307.689 33.628C307.854 31.1067 307.978 28.6887 308.061 26.374C308.143 24.018 308.205 21.8687 308.247 19.926C309.239 19.926 310.293 19.9053 311.409 19.864C312.566 19.8227 313.599 19.7813 314.509 19.74C315.459 19.6987 316.265 19.6573 316.927 19.616C317.588 19.5333 317.919 19.492 317.919 19.492C317.464 24.2867 317.071 28.234 316.741 31.334C316.41 34.3927 316.141 36.8933 315.935 38.836C315.769 40.7373 315.604 42.5767 315.439 44.354C315.315 46.1313 315.17 47.7847 315.005 49.314C314.839 50.8433 314.695 52.1453 314.571 53.22H315.687L322.631 20.236C323.747 20.1947 324.883 20.1327 326.041 20.05C327.074 19.9673 328.149 19.9053 329.265 19.864C330.422 19.8227 331.476 19.74 332.427 19.616C331.848 21.4347 331.249 23.4393 330.629 25.63C330.05 27.8207 329.43 30.094 328.769 32.45C328.149 34.806 327.529 37.2033 326.909 39.642C326.33 42.0807 325.751 44.4367 325.173 46.71C323.85 52.042 322.527 57.5187 321.205 63.14L305.147 65.558ZM347.797 63.76C346.764 63.9253 345.627 64.1113 344.387 64.318C343.147 64.5247 342.031 64.7107 341.039 64.876C341.204 63.512 341.37 62.1687 341.535 60.846C341.659 59.6887 341.762 58.5313 341.845 57.374C341.969 56.2167 342.072 55.2247 342.155 54.398H336.761L334.281 63.326C333.372 63.45 332.297 63.5947 331.057 63.76C329.817 63.884 328.66 64.008 327.585 64.132C326.262 64.2973 324.96 64.4627 323.679 64.628C325.332 59.1307 326.965 53.716 328.577 48.384C329.238 46.152 329.92 43.8167 330.623 41.378C331.367 38.9393 332.09 36.5213 332.793 34.124C333.537 31.6853 334.24 29.35 334.901 27.118C335.562 24.886 336.141 22.84 336.637 20.98C339.448 20.7733 342.3 20.5253 345.193 20.236C348.128 19.9467 350.98 19.554 353.749 19.058C353.625 20.3807 353.48 22.034 353.315 24.018C353.191 25.9607 353.067 28.0893 352.943 30.404C352.819 32.7187 352.695 35.1367 352.571 37.658C352.447 40.1793 352.323 42.6593 352.199 45.098C351.992 50.802 351.765 56.8573 351.517 63.264C350.277 63.4707 349.037 63.636 347.797 63.76ZM338.249 48.198C338.414 48.198 338.704 48.198 339.117 48.198C339.572 48.1567 340.026 48.136 340.481 48.136C340.977 48.0947 341.432 48.074 341.845 48.074C342.258 48.0327 342.548 47.9913 342.713 47.95C342.713 47.702 342.734 47.2887 342.775 46.71C342.858 46.09 342.92 45.408 342.961 44.664C343.044 43.8787 343.126 43.0313 343.209 42.122C343.292 41.2127 343.374 40.324 343.457 39.456C343.622 37.348 343.829 35.0747 344.077 32.636L344.449 27.242L343.519 27.304L342.093 32.636L338.249 48.198ZM368.915 63.016C367.634 63.016 366.27 63.0573 364.823 63.14C363.418 63.2227 361.992 63.3467 360.545 63.512C359.098 63.6773 357.672 63.9047 356.267 64.194C354.903 64.442 353.663 64.752 352.547 65.124C352.795 63.264 353.084 61.1973 353.415 58.924C353.746 56.6507 354.118 54.2947 354.531 51.856C354.986 49.4173 355.42 46.958 355.833 44.478C356.288 41.998 356.742 39.6213 357.197 37.348C358.23 31.9333 359.326 26.4153 360.483 20.794L371.333 19.368C370.217 24.1627 369.142 28.8333 368.109 33.38C367.654 35.3227 367.2 37.348 366.745 39.456C366.29 41.5227 365.856 43.548 365.443 45.532C365.03 47.516 364.658 49.438 364.327 51.298C363.996 53.158 363.728 54.8113 363.521 56.258C364.554 56.1753 365.65 56.134 366.807 56.134C368.006 56.0927 369.06 56.072 369.969 56.072C370.01 56.8573 370.072 57.6427 370.155 58.428C370.238 59.172 370.32 59.854 370.403 60.474C370.527 61.094 370.61 61.652 370.651 62.148C370.734 62.6027 370.796 62.9127 370.837 63.078C370.506 63.078 370.176 63.078 369.845 63.078C369.556 63.0367 369.246 63.016 368.915 63.016ZM371.008 65.062L379.13 20.98L398.722 19.306C398.433 20.2153 398.185 21.1453 397.978 22.096C397.771 22.8813 397.565 23.708 397.358 24.576C397.193 25.4027 397.048 26.1467 396.924 26.808C396.511 26.8493 395.911 26.8907 395.126 26.932C394.382 26.932 393.576 26.9527 392.708 26.994C391.84 26.994 390.951 26.994 390.042 26.994C389.174 26.994 388.409 26.994 387.748 26.994L385.578 38.092C386.859 38.0093 388.058 37.9473 389.174 37.906C390.083 37.8647 391.013 37.844 391.964 37.844C392.915 37.844 393.617 37.8233 394.072 37.782C393.907 38.9393 393.741 40.076 393.576 41.192C393.452 42.308 393.287 43.4447 393.08 44.602C392.667 44.6433 391.985 44.6847 391.034 44.726C390.125 44.726 389.195 44.7467 388.244 44.788C387.169 44.8293 385.991 44.8707 384.71 44.912L382.602 56.32L391.654 54.894L391.034 61.962L371.008 65.062ZM391.953 65.31C393.193 59.358 394.371 53.592 395.487 48.012C395.9 45.6147 396.334 43.1347 396.789 40.572C397.285 38.0093 397.74 35.488 398.153 33.008C398.566 30.4867 398.938 28.0893 399.269 25.816C399.6 23.5013 399.848 21.414 400.013 19.554C400.55 19.5953 401.005 19.616 401.377 19.616C401.749 19.616 402.183 19.616 402.679 19.616C403.258 19.616 403.96 19.616 404.787 19.616C405.614 19.5747 406.44 19.5333 407.267 19.492C408.094 19.4507 408.982 19.4093 409.933 19.368C410.512 22.2613 411.028 25.0513 411.483 27.738C411.938 30.094 412.392 32.512 412.847 34.992C413.343 37.472 413.777 39.58 414.149 41.316C414.314 40.4893 414.5 39.5387 414.707 38.464C414.914 37.348 415.141 36.1907 415.389 34.992C415.637 33.7933 415.864 32.5947 416.071 31.396C416.319 30.156 416.567 28.9367 416.815 27.738C417.394 25.0513 417.993 22.282 418.613 19.43L426.177 18.5C424.772 24.824 423.532 30.8173 422.457 36.48C421.961 38.9187 421.465 41.3987 420.969 43.92C420.514 46.4 420.08 48.7973 419.667 51.112C419.254 53.3853 418.902 55.514 418.613 57.498C418.324 59.4407 418.096 61.0733 417.931 62.396C417.807 62.396 417.311 62.4993 416.443 62.706C415.616 62.8713 414.645 63.078 413.529 63.326C412.454 63.574 411.359 63.822 410.243 64.07C409.168 64.318 408.362 64.5453 407.825 64.752C407.577 61.4453 407.308 58.304 407.019 55.328C406.895 54.0467 406.75 52.7447 406.585 51.422C406.461 50.058 406.316 48.756 406.151 47.516C405.986 46.276 405.82 45.1187 405.655 44.044C405.49 42.9693 405.324 42.0393 405.159 41.254C405.035 42.0393 404.87 42.9487 404.663 43.982C404.456 45.0153 404.25 46.1107 404.043 47.268C403.836 48.4253 403.63 49.6447 403.423 50.926C403.216 52.166 402.989 53.3647 402.741 54.522C402.204 57.2913 401.625 60.1847 401.005 63.202L391.953 65.31ZM425.256 65.062C426.207 60.5153 427.116 56.0307 427.984 51.608C428.356 49.748 428.728 47.8053 429.1 45.78C429.472 43.7547 429.823 41.7707 430.154 39.828C430.526 37.844 430.836 35.9427 431.084 34.124C431.373 32.264 431.621 30.5693 431.828 29.04C430.877 28.916 429.906 28.8747 428.914 28.916C427.963 28.9573 427.013 28.8333 426.062 28.544C426.103 27.8827 426.124 27.118 426.124 26.25C426.124 25.382 426.145 24.514 426.186 23.646C426.227 22.6953 426.269 21.6827 426.31 20.608C427.385 20.6907 428.459 20.7527 429.534 20.794C430.609 20.8353 431.683 20.856 432.758 20.856C434.866 20.856 436.891 20.8147 438.834 20.732C440.818 20.608 442.637 20.484 444.29 20.36C445.985 20.1947 447.638 20.0087 449.25 19.802L448.568 23.15C448.361 24.1007 448.155 25.072 447.948 26.064C447.783 27.056 447.617 27.9033 447.452 28.606C446.543 28.854 445.613 29.04 444.662 29.164C443.753 29.2467 442.843 29.3707 441.934 29.536C441.645 30.9413 441.335 32.512 441.004 34.248C440.673 35.9427 440.343 37.72 440.012 39.58C439.723 41.3987 439.433 43.2587 439.144 45.16C438.855 47.0613 438.565 48.88 438.276 50.616C437.615 54.708 436.995 58.9447 436.416 63.326L425.256 65.062ZM452.679 63.76C452.307 63.76 451.563 63.822 450.447 63.946C449.372 64.0287 448.256 64.1527 447.099 64.318C445.942 64.442 444.888 64.566 443.937 64.69C443.028 64.814 442.532 64.8967 442.449 64.938C442.862 63.1607 443.276 61.1973 443.689 59.048C444.144 56.8573 444.598 54.584 445.053 52.228C445.508 49.8307 445.942 47.4127 446.355 44.974C446.768 42.5353 447.161 40.1793 447.533 37.906C448.401 32.6153 449.269 27.18 450.137 21.6L459.809 20.05C458.858 25.5887 457.928 31.024 457.019 36.356C456.647 38.6293 456.254 40.9853 455.841 43.424C455.469 45.8627 455.076 48.2807 454.663 50.678C454.291 53.0753 453.94 55.4107 453.609 57.684C453.278 59.916 452.968 61.9413 452.679 63.76ZM454.982 65.31C456.222 59.358 457.4 53.592 458.516 48.012C458.93 45.6147 459.364 43.1347 459.818 40.572C460.314 38.0093 460.769 35.488 461.182 33.008C461.596 30.4867 461.968 28.0893 462.298 25.816C462.629 23.5013 462.877 21.414 463.042 19.554C463.58 19.5953 464.034 19.616 464.406 19.616C464.778 19.616 465.212 19.616 465.708 19.616C466.287 19.616 466.99 19.616 467.816 19.616C468.643 19.5747 469.47 19.5333 470.296 19.492C471.123 19.4507 472.012 19.4093 472.962 19.368C473.541 22.2613 474.058 25.0513 474.512 27.738C474.967 30.094 475.422 32.512 475.876 34.992C476.372 37.472 476.806 39.58 477.178 41.316C477.344 40.4893 477.53 39.5387 477.736 38.464C477.943 37.348 478.17 36.1907 478.418 34.992C478.666 33.7933 478.894 32.5947 479.1 31.396C479.348 30.156 479.596 28.9367 479.844 27.738C480.423 25.0513 481.022 22.282 481.642 19.43L489.206 18.5C487.801 24.824 486.561 30.8173 485.486 36.48C484.99 38.9187 484.494 41.3987 483.998 43.92C483.544 46.4 483.11 48.7973 482.696 51.112C482.283 53.3853 481.932 55.514 481.642 57.498C481.353 59.4407 481.126 61.0733 480.96 62.396C480.836 62.396 480.34 62.4993 479.472 62.706C478.646 62.8713 477.674 63.078 476.558 63.326C475.484 63.574 474.388 63.822 473.272 64.07C472.198 64.318 471.392 64.5453 470.854 64.752C470.606 61.4453 470.338 58.304 470.048 55.328C469.924 54.0467 469.78 52.7447 469.614 51.422C469.49 50.058 469.346 48.756 469.18 47.516C469.015 46.276 468.85 45.1187 468.684 44.044C468.519 42.9693 468.354 42.0393 468.188 41.254C468.064 42.0393 467.899 42.9487 467.692 43.982C467.486 45.0153 467.279 46.1107 467.072 47.268C466.866 48.4253 466.659 49.6447 466.452 50.926C466.246 52.166 466.018 53.3647 465.77 54.522C465.233 57.2913 464.654 60.1847 464.034 63.202L454.982 65.31ZM483.201 65.062L491.323 20.98L510.915 19.306C510.626 20.2153 510.378 21.1453 510.171 22.096C509.965 22.8813 509.758 23.708 509.551 24.576C509.386 25.4027 509.241 26.1467 509.117 26.808C508.704 26.8493 508.105 26.8907 507.319 26.932C506.575 26.932 505.769 26.9527 504.901 26.994C504.033 26.994 503.145 26.994 502.235 26.994C501.367 26.994 500.603 26.994 499.941 26.994L497.771 38.092C499.053 38.0093 500.251 37.9473 501.367 37.906C502.277 37.8647 503.207 37.844 504.157 37.844C505.108 37.844 505.811 37.8233 506.265 37.782C506.1 38.9393 505.935 40.076 505.769 41.192C505.645 42.308 505.48 43.4447 505.273 44.602C504.86 44.6433 504.178 44.6847 503.227 44.726C502.318 44.726 501.388 44.7467 500.437 44.788C499.363 44.8293 498.185 44.8707 496.903 44.912L494.795 56.32L503.847 54.894L503.227 61.962L483.201 65.062Z" fill="white"/>
</svg>
